<?xml version="1.0" encoding="UTF-8"?>
<svg version="1.1" xmlns="http://www.w3.org/2000/svg" width="2000" height="1500">
<path d="M0 0 C660 0 1320 0 2000 0 C2000 495 2000 990 2000 1500 C1340 1500 680 1500 0 1500 C0 1005 0 510 0 0 Z " fill="#000000" transform="translate(0,0)"/>
<path d="M0 0 C0.66 0 1.32 0 2 0 C2.70125 0.969375 3.4025 1.93875 4.125 2.9375 C6.36843537 5.7695595 8.39894415 7.29753234 11.671875 8.6953125 C18.5923227 11.70900309 23.53198236 14.18303245 26.8203125 21.29296875 C32.80538148 36.60293238 32.80538148 36.60293238 32 43 C30.51318359 44.61474609 30.51318359 44.61474609 28.3984375 46.0234375 C27.60864502 46.56226563 26.81885254 47.10109375 26.00512695 47.65625 C25.13718506 48.2234375 24.26924316 48.790625 23.375 49.375 C22.48578857 49.97570312 21.59657715 50.57640625 20.68041992 51.1953125 C18.77997299 52.47784505 16.87476506 53.75334557 14.96533203 55.02246094 C11.99116388 57.00589268 9.03790346 59.01706162 6.08984375 61.0390625 C0.73796806 64.70971134 -4.62348482 68.36553081 -10 72 C-11.29091553 72.87591797 -11.29091553 72.87591797 -12.60791016 73.76953125 C-13.42437012 74.31996094 -14.24083008 74.87039063 -15.08203125 75.4375 C-16.17801636 76.17806641 -16.17801636 76.17806641 -17.29614258 76.93359375 C-19 78 -19 78 -20 78 C-19.88480819 75.02016976 -19.75809198 72.04154208 -19.625 69.0625 C-19.5940625 68.23169922 -19.563125 67.40089844 -19.53125 66.54492188 C-19.1632867 58.6643746 -17.72712514 51.45553697 -14.9375 44.0625 C-14.42509766 42.68771484 -14.42509766 42.68771484 -13.90234375 41.28515625 C-13 39 -13 39 -12 37 C-14.96538162 36.83423333 -16.36799722 36.77289496 -19 38 C-21.50327138 41.31527152 -23.04285926 45.01444477 -24.6875 48.8125 C-25.14705078 49.80443359 -25.60660156 50.79636719 -26.08007812 51.81835938 C-30.79371647 62.19374307 -34.14869856 72.43305569 -35.8984375 83.67578125 C-38.78360282 92.38243264 -46.2518174 96.46055972 -53.75 101 C-55.64205704 102.1643428 -57.53269064 103.33100194 -59.421875 104.5 C-60.35064453 105.07105469 -61.27941406 105.64210938 -62.23632812 106.23046875 C-64.99353095 107.99585798 -67.62341481 109.8803463 -70.265625 111.8125 C-74.1471607 114.58569171 -77.32997971 116.08630038 -82 117 C-82.3067273 103.87888774 -82.05759023 91.31413274 -77 79 C-76.60919203 77.01043215 -76.25149128 75.01193023 -76 73 C-79.65833611 74.44242606 -81.60709741 75.32282188 -83.61157227 78.77758789 C-86.96196795 88.69845392 -88.25759304 98.18121676 -89.11303711 108.5690918 C-90.34977256 123.01316582 -90.34977256 123.01316582 -95.19555664 127.57299805 C-96.0887561 128.27936401 -96.0887561 128.27936401 -97 129 C-97.65282959 129.53987549 -98.30565918 130.07975098 -98.97827148 130.63598633 C-101.19147903 132.38926049 -103.45296611 134.04575203 -105.75 135.6875 C-106.57693359 136.28256348 -107.40386719 136.87762695 -108.25585938 137.49072266 C-109.97627457 138.72224994 -111.70027 139.94879044 -113.42773438 141.17041016 C-115.9245081 142.94630445 -118.39196835 144.75784951 -120.859375 146.57421875 C-134.77206415 156.6122863 -134.77206415 156.6122863 -142.1328125 155.68359375 C-143.07898437 155.45800781 -144.02515625 155.23242188 -145 155 C-145.97211426 154.78754639 -145.97211426 154.78754639 -146.96386719 154.57080078 C-152.71969192 153.30608555 -158.40611347 151.86462884 -164 150 C-167.8503626 149.76889279 -171.7059244 149.81483874 -175.5625 149.8125 C-177.16254883 149.79413086 -177.16254883 149.79413086 -178.79492188 149.77539062 C-179.81263672 149.77345703 -180.83035156 149.77152344 -181.87890625 149.76953125 C-182.8129126 149.76542236 -183.74691895 149.76131348 -184.70922852 149.75708008 C-187.19729249 149.77822668 -187.19729249 149.77822668 -189 152 C-187.73027344 152.21914063 -186.46054688 152.43828125 -185.15234375 152.6640625 C-172.60520316 154.93713068 -161.39028815 158.13735169 -150 164 C-151.3720953 168.11628591 -154.27212931 169.74624403 -157.625 172.25 C-161.55890117 175.24104501 -165.3174889 178.11635634 -168.625 181.8125 C-178.51376412 191.93267554 -192.35346138 192.7904597 -205.625 194.375 C-206.63002563 194.50273804 -207.63505127 194.63047607 -208.67053223 194.76208496 C-223.8398111 196.68149258 -238.78539383 197.58488291 -254.06884766 197.13037109 C-255.36097168 197.09250488 -256.6530957 197.05463867 -257.984375 197.015625 C-259.10553711 196.96696289 -260.22669922 196.91830078 -261.38183594 196.86816406 C-264.16186349 196.71476271 -264.16186349 196.71476271 -266 199 C-266.39764263 200.98821313 -266.73775349 202.98944339 -267 205 C-265.48224976 204.99238647 -265.48224976 204.99238647 -263.93383789 204.98461914 C-253.87922832 204.9501455 -243.83888401 205.09101188 -233.78833008 205.37231445 C-231.43514306 205.43756535 -229.08185827 205.49730035 -226.72851562 205.55664062 C-216.80114584 205.81977386 -206.9066587 206.30879832 -197 207 C-200.68636358 212.74191649 -204.64032317 218.18570785 -208.83349609 223.56933594 C-212.48977798 228.28737948 -216.01005168 233.09543314 -219.5 237.9375 C-220.05067139 238.69804688 -220.60134277 239.45859375 -221.16870117 240.2421875 C-223.76871324 243.84569277 -226.33035948 247.46512645 -228.8046875 251.15625 C-229.45920898 252.11736694 -229.45920898 252.11736694 -230.12695312 253.09790039 C-230.92905801 254.28018919 -231.71805647 255.47153559 -232.49023438 256.67358398 C-235.31732516 260.81154284 -238.34093025 262.55264449 -243 264 C-243.79978271 264.24935303 -244.59956543 264.49870605 -245.42358398 264.75561523 C-252.66642526 266.8564558 -260.00998151 268.232431 -267.4375 269.5 C-268.68072021 269.71503174 -269.92394043 269.93006348 -271.20483398 270.15161133 C-281.49084674 271.87209368 -291.77509226 273.07644465 -302.16381836 274.01171875 C-303.26604736 274.11484375 -304.36827637 274.21796875 -305.50390625 274.32421875 C-306.47142822 274.40760498 -307.4389502 274.49099121 -308.43579102 274.5769043 C-310.98962746 274.99828853 -312.77178326 275.71167365 -315 277 C-315 278.65 -315 280.3 -315 282 C-307.28227796 282.09849187 -299.68657405 281.87549378 -292 281.1875 C-290.99541748 281.10129395 -289.99083496 281.01508789 -288.95581055 280.92626953 C-279.34869347 280.0788635 -269.7612798 279.04507682 -260.17773438 277.96557617 C-259.05302734 277.84029541 -257.92832031 277.71501465 -256.76953125 277.5859375 C-255.77542236 277.4729834 -254.78131348 277.3600293 -253.75708008 277.24365234 C-251.15347845 277.0135634 -248.61195744 276.95529001 -246 277 C-247.86708661 282.9307457 -250.0624305 288.56807861 -252.56616211 294.25683594 C-261.00350893 313.55209279 -266.40517908 334.48444597 -267.2265625 355.6328125 C-267.25524414 356.36072998 -267.28392578 357.08864746 -267.31347656 357.83862305 C-267.37087358 359.79672696 -267.38628296 361.7559365 -267.3984375 363.71484375 C-268.76713984 371.18938054 -278.02656458 376.04504808 -283.9453125 380.2734375 C-292.55362349 386.20835998 -301.84246845 390.46514364 -312 393 C-316.93669593 394.13806204 -316.93669593 394.13806204 -321 397 C-317.20012449 399.53325034 -313.38955949 399.46001592 -309 399 C-304.12940609 397.93411961 -299.35088327 396.56930956 -294.5625 395.1875 C-293.27824774 394.82657272 -291.9937436 394.46654041 -290.70898438 394.10742188 C-285.3540383 392.59448999 -280.03511172 391.04686666 -274.77734375 389.22265625 C-271.15876561 388.05138949 -269.51384134 387.6823095 -266 389 C-264.33729144 390.66270856 -264.66827704 392.77835241 -264.45654297 395.01391602 C-262.6639032 413.33655909 -255.24197096 428.87454386 -244.75 443.75 C-244.33790283 444.33467041 -243.92580566 444.91934082 -243.5012207 445.52172852 C-241.28935094 448.55234431 -239.15213614 450.94677371 -236 453 C-235.44538743 446.73046657 -236.93719341 443.72135653 -240.3125 438.75 C-248.51897643 425.81872692 -250.21927646 411.16381086 -250 396 C-245.87718015 397.29475094 -242.06475776 398.83790013 -238.19140625 400.75 C-237.11439453 401.2759375 -236.03738281 401.801875 -234.92773438 402.34375 C-232.68738881 403.44636929 -230.44780226 404.55053214 -228.20898438 405.65625 C-222.86524643 408.26263982 -217.80560096 410.66345877 -212 412 C-214.41767359 406.25290303 -218.93209698 404.61654599 -224.25 402.0625 C-236.32395731 396.21213583 -246.26440258 388.09253405 -251 375 C-251.3808143 367.01117832 -250.28093452 359.27857657 -249.1875 351.375 C-249.09563416 350.70603699 -249.00376831 350.03707397 -248.90911865 349.34783936 C-245.61946783 325.46621897 -239.09183957 306.32792891 -228 285 C-227.01 285 -226.02 285 -225 285 C-223.28950623 287.97793072 -221.58188102 290.95749717 -219.875 293.9375 C-219.34310059 294.86522217 -218.81120117 295.79294434 -218.26318359 296.7487793 C-215.23767181 302.03926057 -212.24518561 307.34575648 -209.296875 312.6796875 C-208.68473145 313.78449463 -208.07258789 314.88930176 -207.44189453 316.02758789 C-206.25556681 318.17244673 -205.07402963 320.3199642 -203.89794922 322.47045898 C-200.04595867 329.4255357 -196.03146546 336.6654092 -190 342 C-189.34 342 -188.68 342 -188 342 C-190.20427831 328.33347449 -195.33799152 315.45893106 -200.56640625 302.70703125 C-202.30065756 298.22255035 -203.70947632 293.68367607 -205.09692383 289.08325195 C-206.64319458 284.00851965 -208.38716344 279.02950576 -210.25 274.0625 C-210.50845703 273.36970947 -210.76691406 272.67691895 -211.03320312 271.96313477 C-212.0994988 268.73534447 -212.0994988 268.73534447 -214 266 C-213.9363213 259.05902224 -210.58367478 255.02300728 -206.4375 249.6875 C-205.79852783 248.84517822 -205.15955566 248.00285645 -204.5012207 247.13500977 C-202.68164914 244.74533504 -200.84428863 242.37062186 -199 240 C-198.21109375 238.97390625 -197.4221875 237.9478125 -196.609375 236.890625 C-189.08433621 227.28549419 -180.70156524 218.53807027 -172 210 C-170 211 -170 211 -169.07855225 213.24813843 C-168.76355774 214.24310333 -168.44856323 215.23806824 -168.12402344 216.26318359 C-167.76314636 217.38880707 -167.40226929 218.51443054 -167.03045654 219.67416382 C-166.45077118 221.51767929 -166.45077118 221.51767929 -165.859375 223.3984375 C-165.4516005 224.67134438 -165.0428329 225.9439335 -164.63311768 227.21621704 C-162.89467503 232.62123776 -161.17522738 238.03225537 -159.46044922 243.44482422 C-158.41069182 246.75586854 -157.34984354 250.06320678 -156.28284454 253.36873245 C-155.68841377 255.22187767 -155.10668491 257.0790822 -154.52532959 258.93637085 C-152.17352263 266.22281241 -149.68796778 273.84231258 -145 280 C-142.91395113 280.85434747 -142.91395113 280.85434747 -141 281 C-140.74880921 275.39992307 -141.61450511 270.75256554 -143.125 265.375 C-143.34583252 264.5617627 -143.56666504 263.74852539 -143.79418945 262.91064453 C-145.77000607 255.68499727 -147.83695583 248.4828928 -149.94384766 241.29443359 C-152.34630121 233.03407577 -154.36876424 225.27365329 -154.25 216.625 C-154.24178223 215.88822021 -154.23356445 215.15144043 -154.22509766 214.39233398 C-153.98068549 202.37803055 -151.67181605 193.59157 -143.6875 184.3125 C-139.67977504 182.35523897 -136.28740654 183.09096809 -132 184 C-129.06024925 185.10373437 -126.33580675 186.53347416 -123.5625 188 C-111.82990024 193.90544468 -99.45840542 197.91721382 -87 202 C-88.22936809 197.492317 -89.46251639 195.04100117 -93 192 C-95.16771871 190.79377638 -97.38426804 189.67339729 -99.62890625 188.6171875 C-100.25981674 188.31684601 -100.89072723 188.01650452 -101.54075623 187.70706177 C-103.54430306 186.7549753 -105.55303957 185.81453182 -107.5625 184.875 C-109.57444421 183.92619224 -111.58521425 182.97497987 -113.59495544 182.02151489 C-115.41477229 181.15941294 -117.23770612 180.30389981 -119.06079102 179.44873047 C-122 178 -122 178 -125 176 C-124.66414381 173.27190501 -124.28766623 172.23601843 -122.12890625 170.46484375 C-121.28199219 169.96082031 -120.43507813 169.45679688 -119.5625 168.9375 C-118.56734375 168.33292969 -117.5721875 167.72835937 -116.546875 167.10546875 C-115.36471064 166.40343142 -114.18240899 165.70162523 -113 165 C-110.09927703 163.25802774 -107.20465811 161.50615148 -104.3125 159.75 C-103.54566895 159.2849707 -102.77883789 158.81994141 -101.98876953 158.34082031 C-96.69668061 155.10572318 -91.53575121 151.7195306 -86.4375 148.1875 C-85.44459961 147.49998657 -85.44459961 147.49998657 -84.43164062 146.79858398 C-81.66710144 144.87638726 -78.91558231 142.9394344 -76.1796875 140.9765625 C-75.39851563 140.42742187 -74.61734375 139.87828125 -73.8125 139.3125 C-73.17957031 138.85488281 -72.54664063 138.39726563 -71.89453125 137.92578125 C-69.31284766 136.66421628 -67.84984636 136.54912878 -65 137 C-62.30078125 138.80078125 -62.30078125 138.80078125 -59.3125 141.3125 C-47.45859043 150.90628503 -31.93993759 163.18073612 -16 162 C-19.12456516 156.36094309 -22.77485987 153.89580377 -28.3125 150.75 C-29.92468671 149.80073631 -31.53533837 148.84886128 -33.14453125 147.89453125 C-33.9535791 147.41709473 -34.76262695 146.9396582 -35.59619141 146.44775391 C-39.30154649 144.21611104 -42.90657231 141.84407087 -46.5 139.4375 C-47.4422644 138.81149902 -47.4422644 138.81149902 -48.40356445 138.17285156 C-50.79045427 136.57028729 -52.96187719 135.03812281 -55 133 C-54.9375 131.125 -54.9375 131.125 -54 129 C-49.38712033 124.72069634 -43.78306673 121.95679412 -38.3125 118.9375 C-29.91771604 114.25830882 -21.64344606 109.4398708 -13.49731445 104.33959961 C-4.82582702 98.93840846 2.67921256 99.36328252 12.65258789 100.71899414 C21.57441525 101.91431754 30.47272723 102.27765288 39.4654541 102.35449219 C40.89286453 102.36804738 42.3202282 102.38843513 43.74743652 102.41601562 C55.00143415 102.65283973 55.00143415 102.65283973 65 98 C65.72997443 95.93170448 65.72997443 95.93170448 66 94 C57.03345803 92.87169349 48.02711932 92.42773781 39.00732422 91.95043945 C30.55092998 91.49829404 22.2990497 90.80543436 14 89 C15.35256184 84.94231447 17.10715948 84.5501067 20.828125 82.53125 C21.4141449 82.20966919 22.00016479 81.88808838 22.60394287 81.5567627 C24.48127154 80.52895565 26.36531277 79.51423969 28.25 78.5 C30.11874687 77.48291944 31.98605614 76.46323788 33.85321045 75.4432373 C35.55645459 74.51463918 37.26300885 73.59212018 38.96972656 72.66992188 C40.9117436 71.5997159 42.8289356 70.48235403 44.7097168 69.30786133 C47.72355647 67.58681462 49.57672098 67.54921619 53 68 C55.52734375 69.42578125 55.52734375 69.42578125 57.9375 71.3125 C64.34027683 76.27855618 69.92894285 78.49764399 78.0625 78.25 C78.74376953 78.24484375 79.42503906 78.2396875 80.12695312 78.234375 C84.17895808 78.17209635 88.01896563 77.71973503 92 77 C98.88527885 76.37296935 98.88527885 76.37296935 102 78.125 C103.53179633 80.99711812 103.51315979 82.7927513 103 86 C100.75 88.4375 100.75 88.4375 98 91 C94.15201216 96.40798291 93.18112743 100.39939078 94 107 C95.06541248 111.08408119 96.41168996 112.82268645 100 115 C102.93310048 115.46766094 102.93310048 115.46766094 106.125 115.5 C115.29674702 116.03527592 122.31305621 117.48902841 129 124 C128.69611836 126.93752254 128.19330344 127.84080893 125.875 129.75 C122.2901772 131.30861861 119.87882048 131.41558791 116 131 C114.824375 130.2575 114.824375 130.2575 113.625 129.5 C109.78765531 127.30723161 106.32160654 127.30002148 102 128 C98.1973971 130.0050088 96.38209159 131.42686262 94 135 C93.54378232 139.02992281 93.70684496 141.40147513 95.5 145.0625 C97.6220641 147.55592532 99.32358961 149.06971526 101.9375 150.9375 C106.82008948 154.43288648 110.45150197 158.01373292 111.5625 164.0625 C110.68183296 168.661539 108.3355072 171.57238885 105.1875 174.9375 C101.87010717 176.54880509 99.53806984 175.79301565 96 175 C94.64841797 174.49146484 94.64841797 174.49146484 93.26953125 173.97265625 C89.49297461 172.84916449 85.96911877 172.6176429 82.0625 172.625 C81.00289062 172.62306641 81.00289062 172.62306641 79.921875 172.62109375 C74.46181663 172.73252351 71.22592475 173.6192602 67 177 C66.25274739 183.62291012 69.35030003 187.29469945 72.88867188 192.52148438 C76.01791927 197.3656579 76.01791927 197.3656579 75.921875 200.765625 C74.31258626 204.66610448 71.75874899 207.91655126 68.1484375 210.140625 C63.81387258 211.87445097 59.55657126 211.79090745 55 211 C51.04739187 209.0446092 47.56467407 206.58309715 44 204 C39.0520372 200.93226306 34.73661075 199.93728254 29 201 C23.90528629 204.03723317 21.71850174 207.77497154 19.078125 213.01171875 C18 215 18 215 16 217 C13.50835006 217.25848238 11.1815199 217.3802025 8.6875 217.375 C7.97489014 217.37483887 7.26228027 217.37467773 6.52807617 217.37451172 C-1.34868275 217.20783568 -8.37121772 214.98176307 -15.58203125 211.89453125 C-18.01585657 210.99413384 -19.91545535 210.63985433 -22.5 210.5625 C-23.2321875 210.52253906 -23.964375 210.48257813 -24.71875 210.44140625 C-28.3104893 211.32089036 -29.73812597 213.13091146 -32 216 C-32.8015878 218.67290017 -33.35416558 220.96679812 -33.75 223.6875 C-34.94454351 230.88908702 -34.94454351 230.88908702 -36 233 C-40.17702981 232.31562788 -43.8713175 230.96269852 -47.8125 229.4375 C-56.25772399 226.31927086 -56.25772399 226.31927086 -64.9296875 227.734375 C-68.99767348 229.7936874 -71.04896025 231.95979379 -73 236 C-73.95344785 243.13216384 -73.12936039 249.69914191 -70.80078125 256.453125 C-68.82420568 262.73959949 -67.84408525 269.41560013 -68 276 C-72.1618637 275.67985664 -74.9784388 274.54686153 -78.5 272.4375 C-82.1879337 270.31508178 -84.67209784 269.01638587 -89 270 C-93.43540643 273.37935728 -96.36319063 277.69568729 -98 283 C-99.62700589 295.06285176 -94.81526616 302.93469863 -88.81835938 312.95263672 C-85.10767408 319.23184551 -83.70958916 324.26571264 -83.6875 331.5625 C-83.67074219 332.84253906 -83.65398437 334.12257813 -83.63671875 335.44140625 C-84.01899177 339.18603767 -84.63662394 341.09501692 -87 344 C-92.6264581 345.06159587 -96.52462343 343.52933859 -101.8125 341.5 C-110.10308023 338.37884038 -117.95525544 337.2981989 -126.2734375 340.9609375 C-129.49288319 342.89843196 -131.0080986 344.76316022 -133 348 C-133.98264181 353.89585084 -132.11442513 358.12007273 -129 363 C-128.0846976 364.12263609 -127.14815012 365.22841439 -126.1875 366.3125 C-125.465625 367.199375 -124.74375 368.08625 -124 369 C-125 372 -125 372 -126.6105957 372.99560547 C-127.29210693 373.28322754 -127.97361816 373.57084961 -128.67578125 373.8671875 C-129.42150391 374.19589844 -130.16722656 374.52460937 -130.93554688 374.86328125 C-132.50744752 375.53234003 -134.08035132 376.19904735 -135.65429688 376.86328125 C-140.23582899 378.88813723 -143.31264529 380.56339603 -146 385 C-146.65728515 389.51883543 -146.28384915 392.62962918 -143.53125 396.35546875 C-141.54463454 398.48905321 -139.34825138 400.3024239 -137.125 402.1875 C-130.38665498 408.05991294 -125.48088535 415.62826917 -124.796875 424.69140625 C-124.77367187 426.11259766 -124.77367187 426.11259766 -124.75 427.5625 C-124.72421875 428.51253906 -124.6984375 429.46257812 -124.671875 430.44140625 C-125.06450654 433.50299741 -125.69890655 434.04706798 -128 436 C-129.72998047 436.93554687 -129.72998047 436.93554687 -131.6171875 437.71875 C-132.65166016 438.15767578 -132.65166016 438.15767578 -133.70703125 438.60546875 C-134.42246094 438.90066406 -135.13789062 439.19585938 -135.875 439.5 C-144.10693059 442.33712408 -144.10693059 442.33712408 -150 448 C-151.10104831 455.23546031 -147.87447697 461.01747427 -144 467 C-139.16021105 472.4214416 -132.752715 474.31021901 -126.07421875 476.70703125 C-121.46951361 478.64369885 -117.29728909 481.40542182 -115 486 C-114.5 489.25 -114.5 489.25 -115 493 C-116.51055159 494.73466903 -118.14704244 496.00107866 -119.984375 497.3828125 C-122.89185465 499.7155578 -125.14210187 502.50710179 -127.51953125 505.36328125 C-129.6169028 507.68201127 -130.64763903 507.98010965 -133.79394531 508.15771484 C-135.54336426 508.18406006 -135.54336426 508.18406006 -137.328125 508.2109375 C-138.60300781 508.23929688 -139.87789062 508.26765625 -141.19140625 508.296875 C-143.21662829 508.33799626 -145.24162054 508.37489046 -147.26708984 508.40136719 C-149.22516033 508.42916843 -151.18292887 508.47612158 -153.140625 508.5234375 C-154.31141602 508.54325684 -155.48220703 508.56307617 -156.68847656 508.58349609 C-160.40066301 509.05039303 -162.82218244 510.04623495 -166 512 C-168.14756489 515.22134734 -168.43868698 516.77415206 -167.8671875 520.55859375 C-165.59520751 526.95493382 -160.31434736 532.20713946 -156.03515625 537.37109375 C-152.04407928 542.33881073 -152.04407928 542.33881073 -151.8125 545.8125 C-153.41769014 548.7694292 -154.92633012 549.67273346 -158 551 C-160.26953125 551.47265625 -160.26953125 551.47265625 -163 551 C-165.40598794 549.11938238 -167.39610367 546.88844295 -169.4375 544.625 C-173.97607784 539.62133821 -177.20586368 536.66753797 -184.16015625 535.69921875 C-188.69046981 535.67131127 -191.58660584 535.96587186 -195 539 C-198.77674168 545.08546277 -200.41644436 551.66272108 -202.06640625 558.55273438 C-203.24743114 563.16342426 -204.35869321 566.69621185 -208 570 C-211.73961183 570.92269087 -215.22481561 570.71118073 -219 570 C-220.875 568.125 -220.875 568.125 -222 565 C-225.80489756 555.96148841 -229.91753653 551.72274829 -238.5 547.125 C-242.85453301 545.72532867 -245.44387834 545.41211333 -250 546 C-254.10516461 549.41672086 -256.41851265 553.2192774 -258.625 558 C-263.70121951 568.70121951 -263.70121951 568.70121951 -267 572 C-270.66539462 572.65977103 -273.00317511 572.68280679 -276.1328125 570.5390625 C-278.16944561 568.75794794 -280.10163844 566.92724967 -282 565 C-282.82757812 564.23623047 -282.82757812 564.23623047 -283.671875 563.45703125 C-286.24655498 560.63245586 -286.32106434 557.30300003 -286.30078125 553.625 C-285.90852389 550.20166308 -284.95928966 547.05836292 -284 543.75 C-281.49368107 534.90319941 -280.22950444 527.07983216 -284.1875 518.5 C-287.78449008 512.23783065 -291.74665932 509.83470554 -298.45019531 507.64868164 C-302.69106823 506.56978473 -306.89268852 506.50640327 -311.25 506.4375 C-321.66639162 506.22948034 -321.66639162 506.22948034 -326 504 C-326.0752853 499.78402339 -326.02650142 497.23413466 -323.28125 493.93359375 C-318.56653321 489.69200875 -313.4031048 486.16366538 -308.171875 482.59765625 C-304.50722379 479.90189664 -302.42885958 477.28657874 -301 473 C-300.57858064 467.5215483 -301.325126 463.81477319 -304 459 C-309.6291406 453.08940237 -317.91488096 449.12094571 -326 448 C-327.90774951 447.96381508 -329.81559744 447.92884631 -331.72363281 447.9140625 C-337.31881774 447.80943071 -342.24237205 447.69812955 -346.75 444 C-351.08361434 439.33081818 -353.27971661 434.14305478 -354.6875 428 C-353.73824779 423.85780852 -351.45378925 421.34703678 -348.7265625 418.1484375 C-345.31681735 413.90554196 -344.54627792 410.67893902 -344.6875 405.3125 C-345.36020181 400.33450662 -347.71924431 397.12066123 -351.5 393.8125 C-355.6122009 391.68296739 -359.74945512 390.39201279 -364.1953125 389.125 C-367.36095631 387.85521529 -368.93266651 386.70492232 -371 384 C-372.85713127 376.66794928 -370.36252279 370.19491167 -366.84375 363.8046875 C-362.80016806 357.65364548 -357.98611405 352.66137678 -351 350 C-350.34 350 -349.68 350 -349 350 C-352.63436713 345.84773555 -356.9386476 343.92345687 -361.8671875 341.73242188 C-367.36355472 339.15526257 -370.75250128 335.64698172 -373 330 C-373.84817295 325.2502315 -373.47146324 321.14903229 -371.0625 316.9375 C-364.21338275 307.36776118 -355.76115384 303.20318009 -345 299 C-339.34704746 296.75846867 -339.34704746 296.75846867 -335.32421875 292.34375 C-333.81400481 288.53034844 -333.53328498 285.59405296 -333.5 281.5 C-333.4690625 280.2315625 -333.438125 278.963125 -333.40625 277.65625 C-334.12166477 273.25080113 -335.62949547 270.79207472 -339 268 C-341.8172742 266.2357443 -344.7463186 264.7932644 -347.75 263.375 C-349.2926415 262.64575129 -350.82948436 261.90407044 -352.359375 261.1484375 C-353.03452148 260.83052246 -353.70966797 260.51260742 -354.40527344 260.18505859 C-356 259 -356 259 -356.72753906 256.86572266 C-356.81745117 256.25003418 -356.90736328 255.6343457 -357 255 C-350.80202591 250.98657501 -344.41918859 247.53670038 -337.828125 244.21875 C-337.10367187 243.84492187 -336.37921875 243.47109375 -335.6328125 243.0859375 C-334.98199707 242.7564209 -334.33118164 242.4269043 -333.66064453 242.08740234 C-331.68077768 240.94607415 -331.68077768 240.94607415 -330 238 C-329.46405445 234.93664806 -329.44875219 232.06248784 -330 229 C-332.16666667 226.58333333 -332.16666667 226.58333333 -335 225 C-337.3125 222.9375 -337.3125 222.9375 -339 221 C-339 220.01 -339 219.02 -339 218 C-336.72241845 216.86120922 -335.38974571 216.86213612 -332.859375 216.82421875 C-332.03566406 216.80037109 -331.21195313 216.77652344 -330.36328125 216.75195312 C-328.63696095 216.70937572 -326.91032653 216.67791469 -325.18359375 216.65820312 C-319.65183737 216.47323771 -316.39212228 215.67476487 -312 212 C-307.82596592 207.26190726 -306.6329592 204.46899554 -306.72265625 198.25 C-307.14446496 194.82800259 -308.4965254 193.30583187 -311 191 C-312.051875 190.319375 -313.10375 189.63875 -314.1875 188.9375 C-317 187 -317 187 -317.828125 185.1484375 C-318.061078 182.23652504 -317.20022129 181.08240152 -315.5625 178.6875 C-315.08941406 177.96949219 -314.61632813 177.25148438 -314.12890625 176.51171875 C-306.56241632 167.58464898 -306.56241632 167.58464898 -301.42016602 166.41137695 C-298.5932694 166.23231239 -295.83103161 166.2257177 -293 166.3125 C-282.83117032 166.54422791 -282.83117032 166.54422791 -274 162 C-268.44670029 155.77480248 -269.54390636 147.29985149 -269.75 139.5 C-269.76804687 138.200625 -269.78609375 136.90125 -269.8046875 135.5625 C-269.85157385 132.37422849 -269.91719107 129.187507 -270 126 C-268.00118979 125.93102355 -265.99893791 125.93482928 -264 126 C-262.63671875 127.609375 -262.63671875 127.609375 -261.6875 129.75 C-259.31208757 134.07938072 -256.89513677 135.50694902 -252.37890625 137.30859375 C-249.60895972 138.1136521 -246.85122044 138.57744503 -244 139 C-243.88364034 131.1004717 -244.11677178 123.35035541 -244.87890625 115.484375 C-244.91886719 114.66453125 -244.95882813 113.8446875 -245 113 C-244 112 -244 112 -240.94921875 111.78515625 C-236.53376607 112.02536386 -232.96608706 113.02177033 -228.8125 114.4375 C-218.97896275 117.67902613 -209.05969054 120.42723907 -198.9375 116.375 C-193.92115777 113.76576705 -191.92474231 110.17314442 -189.75 105.0625 C-188.35600601 99.37035787 -188.696526 95.39643092 -191 90.0625 C-194.54127882 81.6519628 -192.93360698 75.91685006 -190.0703125 67.5390625 C-189 65 -189 65 -187 63 C-181.88656877 62.51760083 -179.20986011 63.15549993 -175 66 C-168.04324669 68.37234905 -157.93369845 68.13308461 -151 65.75 C-146.09933172 63.20275999 -144.02458288 58.65349704 -141.60546875 53.875 C-139.99010127 50.98227381 -138.58475082 49.06390649 -136 47 C-132.94437275 46.24442672 -130.0872711 46.43623745 -127 47 C-124.95950578 48.2704964 -122.94982535 49.59431196 -121 51 C-118.89602228 50.98575858 -118.89602228 50.98575858 -117 50 C-115.93960012 48.21693588 -115.93960012 48.21693588 -115.375 46.0625 C-114.50648174 43.24747904 -114.13620863 42.13620863 -112 40 C-110.01171875 39.98828125 -110.01171875 39.98828125 -107.6875 40.3125 C-106.87796875 40.42078125 -106.0684375 40.5290625 -105.234375 40.640625 C-103.62681675 40.89918332 -102.02785334 41.21339805 -100.4375 41.5625 C-91.51115873 43.16466382 -85.59413622 40.88354482 -78 36 C-74.59965387 32.27581138 -73.58956052 28.88159377 -72.56640625 24.09765625 C-71.55090766 20.33680976 -69.79906339 15.79906339 -67 13 C-60.78385981 13.23997552 -57.77450491 15.29805516 -53.1875 19.0625 C-48.21733704 22.87351088 -44.57665548 25.28223968 -38.0625 24.54296875 C-35.27773587 23.8098585 -33.20930984 22.85296955 -31 21 C-29.18390738 17.36781476 -30.01108886 12.7822527 -30.12695312 8.765625 C-30.15676687 6.84351537 -30.08484824 4.92046741 -30 3 C-29.34 2.34 -28.68 1.68 -28 1 C-22.26601444 1.1456911 -17.87773636 5.3455119 -13.43945312 8.58203125 C-12.79814453 9.03191406 -12.15683594 9.48179687 -11.49609375 9.9453125 C-10.92044678 10.36312988 -10.3447998 10.78094727 -9.75170898 11.21142578 C-7.99178546 12.17913496 -7.99178546 12.17913496 -5.8605957 11.78491211 C-3.72099544 11.11862212 -3.72099544 11.11862212 -2.734375 8.49609375 C-2.24710938 6.98208984 -2.24710938 6.98208984 -1.75 5.4375 C-1.24726562 3.91962891 -1.24726562 3.91962891 -0.734375 2.37109375 C-0.49203125 1.58863281 -0.2496875 0.80617188 0 0 Z " fill="#010101" transform="translate(1546,480)"/>
<path d="M0 0 C41.91 0 83.82 0 127 0 C127.1292729 41.63653254 127.25713291 83.27306845 127.38218227 124.90961384 C127.39718974 129.90596982 127.41221301 134.90232574 127.42724609 139.89868164 C127.43023671 140.89272295 127.43322732 141.88676425 127.43630856 142.91092802 C127.47797284 156.74878563 127.52047949 170.58664041 127.56369197 184.42449327 C127.63835428 208.33377046 127.71129226 232.2430523 127.78125 256.15234375 C127.78399162 257.08805157 127.78673324 258.02375939 127.78955793 258.987822 C127.98945756 327.32539237 128.06785122 395.66214775 128 464 C129.23564697 463.98952637 130.47129395 463.97905273 131.74438477 463.96826172 C136.34949827 463.93193203 140.95459921 463.90905241 145.55981445 463.89013672 C147.54909397 463.88010864 149.53835886 463.86648283 151.52758789 463.84912109 C154.39473085 463.82473209 157.2616781 463.81348474 160.12890625 463.8046875 C161.01147598 463.79436493 161.89404572 463.78404236 162.80335999 463.77340698 C169.23769419 463.77225033 174.61408208 464.09126567 179.8125 468.25 C183.76157109 473.21454651 184 476.64142669 184 483 C148.69 483 113.38 483 77 483 C76.01 471.45 75.02 459.9 74 448 C73.443125 442.3384375 73.443125 442.3384375 72.875 436.5625 C71.91176589 426.72145815 71.40319364 416.87824407 71 407 C68.09379708 410.50532783 66.25768582 414.41992459 64.3125 418.5 C58.8570339 429.64625611 52.01362596 439.53204933 44 449 C43.26265625 449.88429688 42.5253125 450.76859375 41.765625 451.6796875 C23.30451597 472.97632635 -3.87471301 487.12967629 -32 490 C-67.73258832 492.03339282 -99.41547538 484.33738353 -127 461 C-128.21816406 459.98486328 -128.21816406 459.98486328 -129.4609375 458.94921875 C-160.17046612 432.45377371 -173.88090918 392.05022246 -176.79272461 352.56835938 C-178.90569004 316.19250216 -175.34185779 280.40698912 -160 247 C-159.68981934 246.30696777 -159.37963867 245.61393555 -159.06005859 244.89990234 C-143.5405719 210.53708331 -116.73924249 181.57399818 -81.5625 167.1875 C-64.63959465 161.11368496 -46.86500739 158.60956905 -28.9375 158.6875 C-28.2670163 158.68932281 -27.59653259 158.69114563 -26.9057312 158.69302368 C10.2705904 158.86207955 42.4438726 170.4438726 69 197 C69.33 137.6 69.66 78.2 70 17 C46.9 17 23.8 17 0 17 C0 11.39 0 5.78 0 0 Z " fill="#FCFCFC" transform="translate(818,438)"/>
<path d="M0 0 C1.14130371 0.01135986 1.14130371 0.01135986 2.30566406 0.02294922 C8.94413396 0.21736358 14.38415563 1.25586031 19.38671875 5.8984375 C22.78189447 9.73138659 24.60882593 12.83720372 25.25 17.875 C24.6890501 22.44273491 23.19917961 23.42396919 19.8125 26.4375 C7.95882489 34.87474964 -5.49048505 41.39027631 -18.1875 48.4375 C-20.06000337 49.47897335 -21.93240592 50.520628 -23.8046875 51.5625 C-27.93047313 53.85745591 -32.05826606 56.14875475 -36.1875 58.4375 C-33.29476058 66.23670906 -29.57364932 70.23456965 -22.61328125 74.74609375 C-20.1875 76.4375 -20.1875 76.4375 -18.1875 79.4375 C-17.875 82 -17.875 82 -18.1875 84.4375 C-27.78044084 90.83279389 -46.51553092 85.27447828 -57.1875 83.4375 C-56.7379955 84.75304985 -56.27760284 86.06488358 -55.8125 87.375 C-55.42964844 88.47134766 -55.42964844 88.47134766 -55.0390625 89.58984375 C-54.33478587 91.62432116 -54.33478587 91.62432116 -52.1875 92.4375 C-50.36890526 92.64765797 -48.54971322 92.85400584 -46.7277832 93.03295898 C-39.70645919 93.73675389 -34.27679074 94.64605482 -28.1875 98.4375 C-27.3625 98.9325 -26.5375 99.4275 -25.6875 99.9375 C-24.8625 100.4325 -24.0375 100.9275 -23.1875 101.4375 C-21.85548083 102.06529592 -20.52202695 102.69005273 -19.1875 103.3125 C-13.27500587 106.25204511 -9.54842873 110.22452966 -7.1875 116.4375 C-6.6448077 120.77903843 -6.88329047 122.86167482 -8.9375 126.75 C-11.11369879 129.34934855 -12.13440134 130.2320706 -15.1875 131.4375 C-17.22705078 131.61694336 -17.22705078 131.61694336 -19.3828125 131.52734375 C-20.17574707 131.50518799 -20.96868164 131.48303223 -21.78564453 131.46020508 C-22.61950684 131.4320874 -23.45336914 131.40396973 -24.3125 131.375 C-30.47680328 131.27058872 -35.68486205 131.39285176 -41.515625 133.57421875 C-46.00617514 135.02511287 -50.65397536 135.66195473 -55.30126953 136.43481445 C-58.64525722 136.99137859 -61.89503426 137.61438356 -65.1875 138.4375 C-65.1875 142.3975 -65.1875 146.3575 -65.1875 150.4375 C-63.81335937 150.46328125 -62.43921875 150.4890625 -61.0234375 150.515625 C-59.20309404 150.57192428 -57.38278276 150.62927121 -55.5625 150.6875 C-54.65886719 150.70167969 -53.75523437 150.71585938 -52.82421875 150.73046875 C-45.82948312 150.98575107 -42.51814965 152.43991531 -37.3125 157.125 C-35.51330768 160.82333976 -35.66027352 164.40746742 -36.1875 168.4375 C-38.22657723 173.26689345 -41.68758629 176.2980246 -46.44140625 178.46484375 C-50.57389339 179.92855541 -54.83033612 180.63600959 -59.12890625 181.4609375 C-62.53902511 182.54973663 -63.9767579 183.65976757 -66.1875 186.4375 C-66.5175 187.4275 -66.8475 188.4175 -67.1875 189.4375 C-66.35605469 189.78167969 -66.35605469 189.78167969 -65.5078125 190.1328125 C-62.54077511 191.80114665 -60.46040477 193.90027938 -58.0625 196.3125 C-57.19367187 197.17617188 -56.32484375 198.03984375 -55.4296875 198.9296875 C-51.76104663 203.03294088 -50.77080265 205.81537652 -50.9375 211.41015625 C-51.33188446 214.60836771 -52.39625707 216.7815191 -54.1875 219.4375 C-59.85981185 223.8492981 -66.65338581 224.67731458 -73.65234375 224.8515625 C-74.66960289 224.88061172 -74.66960289 224.88061172 -75.70741272 224.9102478 C-77.84648566 224.96941999 -79.98561428 225.01617519 -82.125 225.0625 C-83.58661036 225.10073745 -85.04819957 225.13979242 -86.50976562 225.1796875 C-90.06881543 225.27506819 -93.62802587 225.35932567 -97.1875 225.4375 C-95.79147491 232.43614528 -95.79147491 232.43614528 -93.0625 239 C-90.78141552 243.9309157 -89.95201211 248.03643784 -91.8828125 253.3515625 C-94.12552451 257.78044757 -96.7471764 260.05401595 -101.1875 262.4375 C-104.1245168 262.97130868 -106.96003259 262.96081047 -109.9375 262.875 C-110.73591309 262.86251221 -111.53432617 262.85002441 -112.35693359 262.8371582 C-119.1670252 262.63425431 -124.933758 261.29276665 -131.17578125 258.5703125 C-136.8958923 256.16305134 -142.02234602 256.1315089 -148.1875 256.4375 C-148.63480469 257.32953125 -149.08210938 258.2215625 -149.54296875 259.140625 C-150.14753906 260.31109375 -150.75210937 261.4815625 -151.375 262.6875 C-152.26251953 264.42773438 -152.26251953 264.42773438 -153.16796875 266.203125 C-156.02085278 270.77215397 -158.6890688 272.91173467 -163.75 274.6875 C-172.69006761 276.54298573 -181.39892423 276.5399168 -189.1875 271.4375 C-191.88922859 269.307942 -194.53688225 267.15531731 -197.11523438 264.87939453 C-199.49164682 262.78307054 -201.14053216 261.45315595 -204.1875 260.4375 C-203.8265625 261.19933594 -203.465625 261.96117187 -203.09375 262.74609375 C-199.87830187 269.90046585 -197.34061457 275.92631529 -199.921875 283.62890625 C-201.87325263 287.97152121 -204.07953522 290.87002201 -208.1875 293.4375 C-215.46195361 295.6815861 -221.47746717 294.65831576 -228.1875 291.4375 C-229.1775 291.4375 -230.1675 291.4375 -231.1875 291.4375 C-234.76867559 296.95847904 -234.77195665 302.07554564 -234.1875 308.4375 C-233.8575 309.4275 -233.5275 310.4175 -233.1875 311.4375 C-231.34902663 316.9529201 -231.22800893 323.01352257 -233.375 328.4375 C-235.55225337 330.83998648 -237.23587038 332.05130957 -240.1875 333.4375 C-243.01315394 333.51709589 -245.52601121 333.45650529 -248.3125 333.1875 C-249.38564453 333.10822266 -249.38564453 333.10822266 -250.48046875 333.02734375 C-253.55892436 332.77991648 -256.24775081 332.4174164 -259.1875 331.4375 C-258.9182901 345.18066555 -258.51928215 356.89086606 -250.3359375 368.48828125 C-247.38416395 373.49826425 -246.91418306 378.20153246 -246.9375 383.9375 C-246.93234375 385.2059375 -246.9271875 386.474375 -246.921875 387.78125 C-247.28650726 392.80030588 -247.92492737 396.23967469 -251.625 399.75 C-255.96601972 402.60872031 -260.10353604 403.13399231 -265.1875 402.4375 C-268.7005132 401.21041933 -271.9861671 399.59817294 -275.3125 397.9375 C-282.84983938 394.00008516 -282.84983938 394.00008516 -291.1875 393.4375 C-291.1875 394.7575 -291.1875 396.0775 -291.1875 397.4375 C-289.4487708 399.17985951 -289.4487708 399.17985951 -287.125 400.6875 C-282.51709803 404.09778561 -278.2842327 407.54686713 -275.1875 412.4375 C-274.75 415.5 -274.75 415.5 -276.1875 418.4375 C-279.48724431 422.27788039 -283.5183462 425.05910721 -287.796875 427.70703125 C-288.42698486 428.09785889 -289.05709473 428.48868652 -289.70629883 428.89135742 C-290.96940602 429.66233658 -292.24265646 430.41697627 -293.52612305 431.15356445 C-296.4770815 432.9299598 -298.00170838 433.87135385 -299.09765625 437.2109375 C-299.12730469 437.94570313 -299.15695312 438.68046875 -299.1875 439.4375 C-298.59582031 439.86160156 -298.00414062 440.28570313 -297.39453125 440.72265625 C-290.21500951 446.05166505 -285.64284167 450.71569939 -283.1875 459.4375 C-282.51130348 465.30261509 -282.15073586 470.57132455 -285.0625 475.8125 C-286.4453125 477.109375 -286.4453125 477.109375 -288.1875 478.4375 C-288.92742187 479.02015625 -289.66734375 479.6028125 -290.4296875 480.203125 C-296.6723588 484.83164764 -303.22916171 489.4375 -311.1875 489.4375 C-309.03143701 497.19932675 -304.70435087 501.71262308 -299.1875 507.4375 C-293.26682061 513.64257883 -287.59870324 519.90416526 -282.5 526.8125 C-282.0656665 527.38323242 -281.63133301 527.95396484 -281.18383789 528.54199219 C-278.49624873 532.29375031 -277.5796012 534.84592399 -278.1875 539.4375 C-282.48588042 547.69039041 -289.59575322 552.42509723 -298.1875 555.4375 C-301.81187488 556.23191993 -305.44067692 556.70297283 -309.125 557.125 C-310.98863209 557.35525079 -312.85193486 557.58818806 -314.71484375 557.82421875 C-315.52687256 557.91920654 -316.33890137 558.01419434 -317.17553711 558.11206055 C-319.25157231 558.34509605 -319.25157231 558.34509605 -321.1875 559.4375 C-320.78917969 560.2109375 -320.39085937 560.984375 -319.98046875 561.78125 C-318.35073706 564.98519941 -316.75818181 568.20421353 -315.1875 571.4375 C-314.65962891 572.52224609 -314.65962891 572.52224609 -314.12109375 573.62890625 C-311.76719136 579.07585913 -311.37135857 584.57204402 -312.1875 590.4375 C-314.62411228 595.31072455 -317.48075811 598.08912304 -322.3046875 600.4921875 C-330.82670871 603.28667142 -341.99435019 602.4809971 -350.046875 598.66015625 C-352.89213413 597.03503562 -355.64152415 595.30575159 -358.30078125 593.390625 C-360.69698152 592.18012217 -362.53970753 592.27343713 -365.1875 592.4375 C-365.50203125 593.66726563 -365.8165625 594.89703125 -366.140625 596.1640625 C-366.57232917 597.79703043 -367.00465378 599.42983442 -367.4375 601.0625 C-367.74494141 602.27486328 -367.74494141 602.27486328 -368.05859375 603.51171875 C-369.76595109 609.87550521 -371.83810359 614.66346597 -377.25 618.75 C-381.87550735 621.40720635 -385.92407881 622.07176119 -391.1875 621.4375 C-397.91761122 619.59599319 -401.56254557 614.96944363 -405.9765625 609.83984375 C-411.77660809 603.53767408 -419.20597505 601.06377384 -427.1875 598.4375 C-427.084375 599.22125 -426.98125 600.005 -426.875 600.8125 C-427.42506849 607.19329449 -430.52479658 612.47636263 -434.625 617.3125 C-440.73981073 622.38331866 -444.69916176 624.19419922 -452.5625 624.125 C-453.41158936 624.11774902 -454.26067871 624.11049805 -455.13549805 624.10302734 C-459.78956233 623.92030323 -463.28364139 623.62686587 -467 620.5625 C-468.68359375 618.640625 -468.68359375 618.640625 -470.1875 616.4375 C-470.75597656 615.60734375 -471.32445312 614.7771875 -471.91015625 613.921875 C-476.40025591 606.8311266 -478.52466037 601.36013218 -478.4375 593 C-478.44910156 591.89301758 -478.44910156 591.89301758 -478.4609375 590.76367188 C-478.44486021 586.24193518 -477.78453151 582.7168045 -476.1875 578.4375 C-475.68702352 573.93321172 -475.6080139 570.7302046 -477.875 566.75 C-484.91396195 558.07452869 -501.58851689 556.36400276 -511.9609375 553.734375 C-516.24147922 552.51136308 -519.66576251 551.16429536 -522.3671875 547.3671875 C-524.17939204 543.10419207 -524.06673817 538.92354001 -523.1875 534.4375 C-520.24111785 528.16640648 -514.29670092 523.43231542 -509.359375 518.734375 C-506.46330472 515.67162442 -505.33336627 513.60443017 -504.8125 509.4375 C-505.28992462 505.618103 -506.2398643 504.8531234 -509.1875 502.4375 C-512.37788417 501.01322164 -512.37788417 501.01322164 -516 499.9375 C-516.65436035 499.72665771 -517.3087207 499.51581543 -517.98291016 499.29858398 C-521.36093109 498.2308002 -524.7484271 497.27609354 -528.19140625 496.44140625 C-537.03542895 494.29063988 -544.74727467 492.23296561 -550.25 484.5625 C-551.79135756 479.42464147 -552.32542418 475.74913215 -549.9453125 470.9140625 C-548.41558899 468.37974445 -546.83234392 465.89848785 -545.1875 463.4375 C-541.92355157 458.43277907 -541.77182581 454.07417031 -541.59375 448.2421875 C-541.9543058 445.27919164 -541.9543058 445.27919164 -544.33984375 443.2890625 C-548.24888098 440.74738397 -552.2721165 438.48008353 -556.34765625 436.21875 C-560.92998778 433.34455031 -563.65043747 430.69174435 -565.1875 425.4375 C-566.38849533 412.47381507 -562.46026561 404.85264924 -555.1875 394.4375 C-553.84459879 392.44368533 -552.51545089 390.44133622 -551.1875 388.4375 C-552.25484375 388.04691406 -552.25484375 388.04691406 -553.34375 387.6484375 C-556.35172498 386.36756903 -558.93923761 384.83034294 -561.6875 383.0625 C-562.6053125 382.47726562 -563.523125 381.89203125 -564.46875 381.2890625 C-569.49108163 377.86868148 -573.15442075 375.3227294 -575.1875 369.4375 C-576.08589415 363.57098618 -576.06501069 358.91567196 -572.5 354 C-564.92980391 344.94315041 -553.53294532 340.78617686 -542.78125 336.7109375 C-539.14130664 334.92385687 -536.89991108 332.71983994 -534.9375 329.1875 C-533.93342166 325.50587941 -533.20724449 322.16138077 -534.1875 318.4375 C-536.53101629 316.10940666 -539.30201149 314.81530122 -542.25 313.375 C-543.81802203 312.53648987 -545.38191874 311.69021558 -546.94140625 310.8359375 C-547.68406738 310.43084961 -548.42672852 310.02576172 -549.19189453 309.60839844 C-553.7768704 306.91821685 -557.48266741 303.55199777 -559.1875 298.4375 C-559.56813345 294.40278541 -559.45282646 291.99026347 -557.6875 288.3125 C-553.45280216 283.44259749 -547.9795846 279.72550643 -541.41015625 279.2265625 C-539.30624617 279.11733602 -537.20206798 279.013155 -535.09765625 278.9140625 C-531.95169291 278.39888461 -530.52697683 277.54584779 -528.1875 275.4375 C-528.45359338 270.13155631 -528.45359338 270.13155631 -531.6875 266.125 C-532.5125 265.568125 -533.3375 265.01125 -534.1875 264.4375 C-535.33023574 262.15202852 -535.41877257 260.66870095 -535.5 258.125 C-535.53738281 257.36574219 -535.57476563 256.60648438 -535.61328125 255.82421875 C-535.00169766 252.39598414 -533.66577445 250.85917438 -531.1875 248.4375 C-528.0859375 247.1796875 -528.0859375 247.1796875 -524.5625 246.3125 C-523.33015625 245.99539063 -522.0978125 245.67828125 -520.828125 245.3515625 C-519.62671875 245.04992187 -518.4253125 244.74828125 -517.1875 244.4375 C-515.22554038 243.8664819 -513.26659019 243.28489329 -511.3125 242.6875 C-510.51070312 242.44515625 -509.70890625 242.2028125 -508.8828125 241.953125 C-508.32335938 241.78296875 -507.76390625 241.6128125 -507.1875 241.4375 C-505.83813385 237.00155977 -506.6068564 234.84644867 -508.625 230.75 C-511.5598372 224.03357984 -512.72090965 218.7685999 -510.23046875 211.734375 C-507.99201176 206.87372554 -505.80586041 203.35435921 -501.1875 200.4375 C-500.1975 199.7775 -499.2075 199.1175 -498.1875 198.4375 C-495.95214387 197.78122237 -493.6987622 197.18554495 -491.4375 196.625 C-485.91934134 195.21055673 -480.4739861 193.65608947 -475.0625 191.875 C-473.26425781 191.28525391 -473.26425781 191.28525391 -471.4296875 190.68359375 C-465.89471598 188.58352825 -465.89471598 188.58352825 -461.82421875 184.4765625 C-458.8275726 176.8554624 -458.89897606 169.67998705 -459.24682617 161.61181641 C-459.27752197 160.72929199 -459.30821777 159.84676758 -459.33984375 158.9375 C-459.38101318 158.1434375 -459.42218262 157.349375 -459.46459961 156.53125 C-459.1875 154.4375 -459.1875 154.4375 -457.88891602 152.65625 C-455.48974698 150.93768897 -453.54668664 151.31788532 -450.7265625 151.77734375 C-445.37859741 153.16781467 -440.28675689 155.33094723 -435.1875 157.4375 C-435.41566406 156.84582031 -435.64382813 156.25414062 -435.87890625 155.64453125 C-436.16636719 154.85433594 -436.45382812 154.06414062 -436.75 153.25 C-437.04003906 152.47269531 -437.33007812 151.69539062 -437.62890625 150.89453125 C-438.3013837 147.93657101 -438.22961095 146.29056819 -437.1875 143.4375 C-435.1484375 141.63671875 -435.1484375 141.63671875 -432.5625 140.125 C-431.72460938 139.61324219 -430.88671875 139.10148438 -430.0234375 138.57421875 C-422.23071332 135.45068881 -414.64970817 138.89015099 -407.1015625 141.3046875 C-401.46862692 143.02404284 -396.10058164 144.30578492 -390.1875 143.4375 C-386.58906785 141.29375319 -384.70598837 139.30032128 -383.1875 135.4375 C-382.37887622 127.28825255 -383.33729532 119.95699198 -385.5 112.1171875 C-386.90836937 106.62774781 -387.01125844 102.36107087 -384.125 97.3125 C-380.41687864 92.04196796 -376.95062368 87.94407267 -370.4375 86.75 C-366.82069472 87.00784546 -364.10039289 88.33627366 -360.875 89.9375 C-352.93738933 93.77510516 -346.21082718 93.22036557 -337.8125 91 C-333.39584313 89.41365554 -331.39396304 88.03073101 -329.1875 83.875 C-328.878125 83.11058594 -328.56875 82.34617187 -328.25 81.55859375 C-326.86675042 78.79718006 -325.97462173 77.82657996 -323.1875 76.4375 C-320.2162751 76.22620775 -317.28240576 76.45035129 -314.3125 76.625 C-306.07443311 76.88616492 -300.7527755 75.64580633 -293.33203125 71.95703125 C-290.33944702 70.51092533 -287.59199947 69.60896322 -284.375 68.8125 C-278.32355757 67.27732582 -272.54469025 65.60356672 -267.875 61.3125 C-266.33842664 58.69463428 -265.31630349 56.26698249 -264.25 53.4375 C-261.86064849 47.15611887 -258.21262186 43.45006093 -252.1875 40.4375 C-247.46653246 38.95376735 -242.08962734 38.96721461 -237.1875 39.4375 C-236.54941406 39.77136719 -235.91132812 40.10523438 -235.25390625 40.44921875 C-232.27225547 41.87522564 -230.46903172 41.9166439 -227.1875 41.4375 C-224.64413279 39.88810939 -222.47297611 37.97353324 -220.25 36 C-215.69254458 31.95734021 -212.58337293 29.50451147 -206.1875 29.4375 C-203.640625 30.1796875 -203.640625 30.1796875 -201.4375 31.3125 C-200.70015625 31.68117188 -199.9628125 32.04984375 -199.203125 32.4296875 C-198.53796875 32.76226562 -197.8728125 33.09484375 -197.1875 33.4375 C-196.1975 33.7675 -195.2075 34.0975 -194.1875 34.4375 C-193.589375 33.48875 -192.99125 32.54 -192.375 31.5625 C-190.1875 28.4375 -190.1875 28.4375 -187.1875 26.4375 C-180.2238538 26.7799744 -180.2238538 26.7799744 -176.76171875 28.9765625 C-171.21084798 31.24544301 -165.74243849 30.75028039 -159.8125 30.625 C-158.59949219 30.61146484 -157.38648438 30.59792969 -156.13671875 30.58398438 C-153.15318794 30.54874582 -150.17057542 30.49947525 -147.1875 30.4375 C-147.13996582 29.84799561 -147.09243164 29.25849121 -147.04345703 28.65112305 C-146.2682754 20.35057308 -143.97063998 13.55000532 -137.5625 7.875 C-133.24067485 4.42340661 -129.12162366 4.2022525 -123.75 4.125 C-122.43128906 4.08761719 -121.11257813 4.05023438 -119.75390625 4.01171875 C-116.1875 4.4375 -116.1875 4.4375 -113.69921875 6.22265625 C-112.1875 8.4375 -112.1875 8.4375 -112.4375 12.1875 C-112.80875 13.79625 -112.80875 13.79625 -113.1875 15.4375 C-115.1675 14.9425 -115.1675 14.9425 -117.1875 14.4375 C-117.85012746 19.73851967 -117.71397928 23.37861684 -114.4375 27.75 C-112.17683062 30.47307902 -109.70820847 32.95515014 -107.1875 35.4375 C-107.06375 34.69886719 -106.94 33.96023438 -106.8125 33.19921875 C-104.53355447 21.98965544 -98.6414752 12.98255976 -89.1875 6.4375 C-86.28194906 6.76816904 -85.42905581 7.17006321 -83.4375 9.375 C-82.1875 11.4375 -82.1875 11.4375 -82.1875 13.4375 C-81.59324219 13.66695313 -80.99898437 13.89640625 -80.38671875 14.1328125 C-77.59784776 15.78731145 -76.61330434 17.51721176 -75 20.3125 C-74.49082031 21.17617188 -73.98164062 22.03984375 -73.45703125 22.9296875 C-71.13079557 27.52489768 -71.0886852 31.29913027 -71.1875 36.4375 C-54.78660447 34.17530751 -39.74559248 21.13154565 -26.19775391 12.37451172 C-22.33092485 9.88631856 -18.4434245 7.43140677 -14.55151367 4.98266602 C-12.18221994 3.4899819 -12.18221994 3.4899819 -10.11328125 1.76513672 C-7.01378102 -0.37166377 -3.63260884 -0.04972933 0 0 Z M-179.1875 42.4375 C-180.8375 46.3975 -182.4875 50.3575 -184.1875 54.4375 C-189.7964185 53.3157163 -189.7964185 53.3157163 -192.5625 51.1171875 C-193.15546875 50.66472656 -193.7484375 50.21226562 -194.359375 49.74609375 C-195.58192817 48.78738219 -196.80067342 47.82379554 -198.015625 46.85546875 C-201.64206524 44.06272491 -201.64206524 44.06272491 -206.0625 43.5703125 C-208.135246 44.25607303 -208.135246 44.25607303 -209.1875 45.4375 C-209.1459643 48.77923582 -209.0597893 52.10994973 -208.88476562 55.44726562 C-208.79595274 59.04254261 -208.84379289 60.9913212 -211.07421875 63.88671875 C-214.70017301 66.54753916 -217.52111349 67.17703935 -221.98828125 67.203125 C-227.29035285 65.93425316 -231.28943136 62.63632906 -235.56494141 59.35058594 C-239.43865302 56.34623863 -239.43865302 56.34623863 -244.06640625 54.99609375 C-246.29505692 55.26377492 -246.29505692 55.26377492 -247.8125 57 C-250.3142391 61.43490113 -252.05961192 65.59492353 -253.0625 70.5625 C-254.30603955 75.68469863 -257.0136874 78.08307632 -261.45703125 80.8515625 C-269.28989542 85.15903619 -274.77084061 85.22392565 -283.30078125 82.89453125 C-286.03061345 82.23326755 -288.40169204 82.11356884 -291.1875 82.4375 C-293.76530682 84.51263449 -294.80891338 86.52827219 -295.875 89.625 C-296.12636719 90.34042969 -296.37773438 91.05585937 -296.63671875 91.79296875 C-296.81847656 92.33566406 -297.00023437 92.87835937 -297.1875 93.4375 C-301.78223684 92.79934211 -301.78223684 92.79934211 -303.9375 90.875 C-306.98431883 88.92842131 -309.37142325 88.76571466 -312.94921875 88.90625 C-317.1556237 89.90462884 -318.97901423 92.91636495 -321.1875 96.4375 C-322.14680129 98.18696958 -323.10510708 99.93698534 -324.0625 101.6875 C-326.42715203 105.66688884 -328.12455742 107.88800682 -332.65234375 109.109375 C-341.53226514 110.25870227 -350.06901474 110.49674263 -358.1875 106.4375 C-358.5175 106.1075 -358.8475 105.7775 -359.1875 105.4375 C-362.60350593 105.02057147 -362.60350593 105.02057147 -366.1875 105.4375 C-370.58837493 110.1140924 -372.26639199 117.13624496 -372.625 123.4375 C-372.47882785 127.693689 -370.74265043 131.19737917 -369.09375 135.06640625 C-366.7285669 141.25462238 -368.47460781 146.38690017 -370.98828125 152.19921875 C-373.16219963 156.25672766 -375.77948484 157.90214047 -379.9921875 159.50390625 C-391.32843152 162.81608513 -405.72279569 159.66985216 -416.1875 154.4375 C-419.72921978 154.27080682 -419.72921978 154.27080682 -423.1875 154.4375 C-423.5175 154.7675 -423.8475 155.0975 -424.1875 155.4375 C-424.09391864 157.35742734 -423.93537443 159.27425281 -423.75 161.1875 C-423.16548503 167.95438487 -423.08751745 174.64979568 -423.1875 181.4375 C-436.16125783 178.89240875 -436.16125783 178.89240875 -440.1875 173.4375 C-440.661875 172.509375 -441.13625 171.58125 -441.625 170.625 C-442.140625 169.903125 -442.65625 169.18125 -443.1875 168.4375 C-446.25273939 168.25511205 -446.25273939 168.25511205 -449.1875 168.4375 C-449.1560791 169.64696289 -449.1560791 169.64696289 -449.12402344 170.88085938 C-449.04040827 174.56627727 -448.98869451 178.25149494 -448.9375 181.9375 C-448.90398437 183.2059375 -448.87046875 184.474375 -448.8359375 185.78125 C-448.69407127 199.40040803 -448.69407127 199.40040803 -453.1875 204.4375 C-459.59230265 209.66519869 -467.22907459 208.90199533 -475.0546875 208.66210938 C-481.59374658 208.69380841 -484.92342152 209.94778464 -489.56591797 214.60864258 C-491.43393985 216.71544051 -493.19904099 218.77109219 -494.75 221.125 C-495.24628906 221.85074219 -495.74257812 222.57648438 -496.25390625 223.32421875 C-497.33767539 225.36427119 -497.33767539 225.36427119 -497.12109375 227.48046875 C-495.83530988 230.17577301 -494.0999098 231.32953473 -491.6875 233.0625 C-487.27683002 236.25883995 -487.27683002 236.25883995 -486.1875 238.4375 C-485.62014108 243.08798294 -485.7276369 246.53480577 -487.875 250.75 C-490.8848314 254.24791217 -494.29637204 258.15508367 -499.12695312 258.62695312 C-499.89974609 258.65724609 -500.67253906 258.68753906 -501.46875 258.71875 C-502.73138672 258.77482422 -502.73138672 258.77482422 -504.01953125 258.83203125 C-505.79817708 258.90234375 -507.57682292 258.97265625 -509.35546875 259.04296875 C-510.61810547 259.09904297 -510.61810547 259.09904297 -511.90625 259.15625 C-512.67904297 259.18654297 -513.45183594 259.21683594 -514.24804688 259.24804688 C-516.26791983 259.32848578 -516.26791983 259.32848578 -518.1875 260.4375 C-518.30385105 262.73531554 -518.30385105 262.73531554 -517.1875 265.4375 C-515.8676733 266.40295462 -514.50770228 267.31447105 -513.125 268.1875 C-509.39599865 270.7830459 -509.39599865 270.7830459 -508.484375 273.64453125 C-508.29583287 277.70492078 -508.53537319 279.60171299 -511.1015625 282.890625 C-514.92254817 286.43374569 -519.7084281 288.42328406 -524.375 290.625 C-526.18267218 291.48998197 -527.98874515 292.35831638 -529.79296875 293.23046875 C-530.98635864 293.79544067 -530.98635864 293.79544067 -532.20385742 294.37182617 C-534.33739678 295.39522204 -534.33739678 295.39522204 -536.1875 297.4375 C-536.16149603 299.47561474 -536.16149603 299.47561474 -535.1875 301.4375 C-533.47684425 302.81697469 -533.47684425 302.81697469 -531.29296875 303.83984375 C-530.10670898 304.46342773 -530.10670898 304.46342773 -528.89648438 305.09960938 C-528.06439453 305.52048828 -527.23230469 305.94136719 -526.375 306.375 C-515.74391298 311.77823119 -515.74391298 311.77823119 -513.1875 316.4375 C-512.69140625 319.99609375 -512.69140625 319.99609375 -512.75 323.875 C-512.75128906 325.15246094 -512.75257812 326.42992187 -512.75390625 327.74609375 C-513.21838931 331.70047654 -514.0205453 334.10967671 -516.1875 337.4375 C-518.24609375 338.94140625 -518.24609375 338.94140625 -520.625 340 C-521.51058594 340.40863281 -522.39617187 340.81726563 -523.30859375 341.23828125 C-525.24376907 342.04438549 -527.19526846 342.81226803 -529.16015625 343.54296875 C-538.08647352 346.91769257 -545.44153812 351.86227759 -550.8125 359.9375 C-552.83651885 365.08954799 -553.39308788 369.41819584 -551.3046875 374.6484375 C-548.54421976 379.56609195 -545.23935832 382.04254495 -540.1875 384.4375 C-538.22323351 385.46793488 -536.26518197 386.51027759 -534.3125 387.5625 C-533.36632813 388.06007813 -532.42015625 388.55765625 -531.4453125 389.0703125 C-529.1875 390.4375 -529.1875 390.4375 -528.1875 392.4375 C-529.0125 392.623125 -529.8375 392.80875 -530.6875 393 C-539.5286124 396.63117116 -545.34462906 404.39153132 -549.328125 412.86328125 C-550.27224706 415.69135596 -550.52109327 418.02285585 -550.5625 421 C-550.59085938 421.92941406 -550.61921875 422.85882812 -550.6484375 423.81640625 C-550.02952191 427.33583303 -549.0494159 428.30801755 -546.1875 430.4375 C-542.92410475 431.88369457 -539.52506068 432.91747662 -536.11914062 433.97265625 C-530.83086453 435.76680428 -528.36658899 437.81666098 -525.1875 442.4375 C-523.60730606 447.17808183 -523.08333483 451.95975336 -525.1640625 456.62890625 C-527.06674505 459.70471516 -529.03339936 462.27934408 -531.5625 464.875 C-533.68839903 468.22737924 -533.49884776 470.25442495 -532.859375 474.09765625 C-531.02395252 480.48962174 -526.94481666 486.01727951 -521.1875 489.4375 C-518.42091264 489.88316365 -516.18726459 490.08486383 -513.4375 490.0625 C-502.95956437 490.36416112 -492.50559936 492.58684952 -484.55078125 499.953125 C-481.00763958 503.97342328 -480.32029185 506.64481002 -479.9375 511.8125 C-480.32011471 517.36041323 -482.15141635 520.72107401 -486.25 524.375 C-489.96006629 527.38252182 -493.89123029 530.06708914 -497.85546875 532.7265625 C-502.32003479 535.89447333 -502.32003479 535.89447333 -504.796875 540.578125 C-504.84328125 541.27421875 -504.8896875 541.9703125 -504.9375 542.6875 C-505.02 543.925 -505.1025 545.1625 -505.1875 546.4375 C-499.69910079 549.26107728 -493.86612417 548.8207823 -487.84375 548.91601562 C-480.41313496 549.14681503 -474.17973375 550.51795382 -467.875 554.5625 C-462.17332693 560.66196422 -460.5273809 566.84528593 -460.78125 575.1171875 C-461.40779742 580.23800775 -462.86479191 585.06433804 -464.28515625 590.0078125 C-465.61397898 595.05848937 -466.17777544 599.04918864 -464.125 604 C-459.35289751 610.02932856 -459.35289751 610.02932856 -453.1875 614.4375 C-448.36041854 614.97355084 -448.36041854 614.97355084 -444.1796875 612.9140625 C-441.58417487 609.68748406 -440.21406096 606.323373 -438.6875 602.5 C-434.00989106 590.84869553 -434.00989106 590.84869553 -429.1875 588.4375 C-420.81100753 587.54001866 -415.39338333 590.91397 -408.375 595.125 C-404.33464234 599.39623525 -402.03985487 605.06984757 -400.0625 610.5625 C-397.1045073 613.5204927 -393.91171064 613.04669441 -389.87890625 613.1015625 C-387.05086719 612.6298169 -387.05086719 612.6298169 -384.99609375 610.44921875 C-382.700937 606.62726226 -381.71932715 602.93376787 -380.6875 598.625 C-377.14949655 584.07038583 -377.14949655 584.07038583 -371.9375 579.4375 C-366.15866886 577.33610686 -361.49994275 577.91361462 -355.97607422 580.39013672 C-352.20534623 582.59822068 -349.52796704 586.11047995 -346.7265625 589.40625 C-345.09559686 591.26932551 -345.09559686 591.26932551 -342.1875 593.4375 C-337.51873394 593.38361078 -334.63827823 592.61221598 -331.1875 589.4375 C-331.58900696 584.14705536 -333.5311734 581.24874296 -337 577.4375 C-347.31914744 565.73128843 -347.31914744 565.73128843 -347.1875 557.4375 C-344.68955216 554.17629032 -343.08320259 552.73606753 -339.1875 551.4375 C-337.07001743 551.36810971 -334.9506004 551.35262076 -332.83203125 551.3671875 C-330.89151935 551.3513385 -328.9510075 551.33548113 -327.01049805 551.31933594 C-325.02454346 551.31258345 -323.03856043 551.3357927 -321.05273438 551.359375 C-312.54854513 551.27126177 -312.54854513 551.27126177 -305.4375 547.0546875 C-304.32432536 545.87645316 -303.23737778 544.67246987 -302.1875 543.4375 C-301.259375 542.53 -300.33125 541.6225 -299.375 540.6875 C-298.653125 539.945 -297.93125 539.2025 -297.1875 538.4375 C-296.589375 537.98375 -295.99125 537.53 -295.375 537.0625 C-293.27698737 534.19153534 -293.72396054 531.8561035 -294.1875 528.4375 C-298.56557352 521.45994533 -304.86143756 519.3123559 -312.3125 516.5 C-320.91418491 513.04091264 -324.16513918 508.69789922 -328.046875 500.3828125 C-329.52533279 496.56515094 -330.02239029 494.44497341 -329.1875 490.4375 C-326.08517061 486.56536183 -322.20046666 484.81093125 -317.75 482.875 C-310.47512957 479.93759018 -310.47512957 479.93759018 -304.1875 475.4375 C-303.02881074 464.97130685 -305.92635806 456.56474839 -312.40234375 448.3828125 C-315.12046145 445.42083741 -318.13347094 442.84931984 -321.234375 440.296875 C-324.31980369 437.35954689 -325.10227911 435.21869153 -325.5625 431 C-325.10364465 426.64087419 -324.25494801 425.53343824 -321.1875 422.4375 C-318.37365966 420.75612855 -315.43841081 419.43634328 -312.4375 418.125 C-311.64472656 417.76599609 -310.85195312 417.40699219 -310.03515625 417.03710938 C-308.09120559 416.15881842 -306.14003789 415.29653141 -304.1875 414.4375 C-304.1875 410.09677281 -304.46372025 409.6396741 -307.0625 406.5 C-310.32761451 402.32619796 -311.94792481 399.3198765 -312.625 394 C-312.08423783 389.59665086 -310.57402976 387.16324346 -307.1875 384.4375 C-301.3819328 380.94365186 -294.78352047 380.49641173 -288.1875 381.4375 C-284.54520477 382.59659506 -281.00545532 383.9354064 -277.4375 385.3046875 C-273.23561633 386.76928638 -270.55902027 387.26231515 -266.1875 386.4375 C-261.55089413 380.63363671 -262.45611271 373.42399006 -263.1875 366.4375 C-265.2310221 358.85376241 -269.20868464 352.42895287 -273.63671875 346.0078125 C-277.56494336 339.49705231 -278.11061465 332.86903918 -277.1875 325.4375 C-275.36980392 320.07131358 -273.21551339 315.37363468 -268.1875 312.4375 C-262.24714264 311.72287054 -257.67965954 313.92443434 -253.01171875 317.37890625 C-250.96240788 318.77210807 -250.96240788 318.77210807 -247.1875 318.4375 C-248.05335682 304.53979621 -248.05335682 304.53979621 -252.1875 291.4375 C-252.68139617 285.5755192 -252.99402142 280.23666316 -250.5625 274.8125 C-246.76857526 271.01857526 -243.88576339 269.55636043 -238.50390625 269.1796875 C-233.8647222 269.24676774 -230.11202035 270.66107221 -225.875 272.4375 C-220.70659664 274.67277283 -220.70659664 274.67277283 -215.1875 275.4375 C-212.99977118 268.64329285 -212.99977118 268.64329285 -211.8125 261.625 C-210.97417282 257.3495314 -209.77061555 255.90089194 -206.1875 253.4375 C-199.444637 251.70964136 -193.33794197 254.64546482 -187.203125 257.24609375 C-181.887829 259.34604878 -176.8027846 259.69800755 -171.125 259.8125 C-170.41794922 259.84988281 -169.71089844 259.88726563 -168.98242188 259.92578125 C-166.62051404 260.01988146 -166.62051404 260.01988146 -163.1875 259.4375 C-160.74635427 257.26500967 -160.74635427 257.26500967 -159.1875 254.4375 C-158.7440625 253.73367188 -158.300625 253.02984375 -157.84375 252.3046875 C-157.4621875 251.64726563 -157.080625 250.98984375 -156.6875 250.3125 C-153.22715718 244.78845874 -153.22715718 244.78845874 -150.1875 243.4375 C-143.57926544 242.40168546 -138.73805948 243.8945897 -133.1875 247.4375 C-132.49011719 247.96601562 -131.79273438 248.49453125 -131.07421875 249.0390625 C-125.91271172 252.9079008 -122.21281294 254.29066169 -115.703125 253.890625 C-110.53987284 252.96059821 -108.00559614 250.42341073 -104.75 246.5 C-102.9150832 242.90356308 -103.00869742 242.1902018 -104.1875 238.4375 C-106.16339972 235.0997751 -108.31001167 231.91066804 -110.47265625 228.69140625 C-112.29672314 225.23024971 -112.55284158 223.2822852 -112.1875 219.4375 C-105.39483168 214.00336534 -97.44780426 214.69424154 -89.1875 215.4375 C-86.6171875 216.15625 -86.6171875 216.15625 -84.625 217 C-80.48458583 218.73144593 -78.45050616 218.80487933 -74.1875 217.4375 C-70.88415976 214.50119757 -68.48196025 211.20426152 -67.75 206.8125 C-68.50654664 200.97628309 -72.0673191 197.18833615 -76.51953125 193.51171875 C-78.07157746 192.34078889 -79.64213111 191.19377888 -81.234375 190.078125 C-84.46214277 187.36680007 -85.11014079 185.14662612 -85.5625 181 C-85.12144638 176.80999061 -84.17663863 175.343607 -81.1875 172.4375 C-76.96125725 169.90352636 -73.00225407 169.83890895 -68.1875 170.4375 C-66.49993867 171.40182076 -64.83083504 172.39960419 -63.1875 173.4375 C-58.6772723 174.01152898 -56.7140716 173.74386893 -52.75 171.4375 C-51.904375 170.7775 -51.05875 170.1175 -50.1875 169.4375 C-50.57753238 167.1170542 -50.89126895 165.74832795 -52.53515625 164.0234375 C-60.02648418 158.73343372 -67.16135519 158.21303914 -76.13671875 157.9765625 C-79.87500012 157.31602111 -81.54578626 156.13157203 -84.1875 153.4375 C-84.98046875 151.45703125 -84.98046875 151.45703125 -85.1875 149.4375 C-85.26613281 148.74011719 -85.34476563 148.04273438 -85.42578125 147.32421875 C-85.6252995 141.41217808 -84.6266052 138.27083704 -81.1875 133.4375 C-80.28 132.591875 -79.3725 131.74625 -78.4375 130.875 C-75.91708386 128.59584739 -75.91708386 128.59584739 -75.6875 125.3125 C-76.01930848 122.51771119 -76.01930848 122.51771119 -77.1875 120.5625 C-81.09822414 118.36271767 -85.70937601 119.17836185 -89.97265625 119.92578125 C-101.80806747 121.80966809 -111.05954923 121.1998071 -121.1875 114.4375 C-121.99832031 113.71046875 -122.80914063 112.9834375 -123.64453125 112.234375 C-126.83888423 109.9772285 -128.33303945 110.10088404 -132.1875 110.4375 C-134.87910512 111.49147961 -134.87910512 111.49147961 -137.453125 113.0703125 C-138.42636719 113.62976563 -139.39960937 114.18921875 -140.40234375 114.765625 C-141.90474609 115.65507813 -141.90474609 115.65507813 -143.4375 116.5625 C-144.42363281 117.13226562 -145.40976563 117.70203125 -146.42578125 118.2890625 C-148.38991322 119.42768973 -150.34900355 120.57506205 -152.30273438 121.73144531 C-154.24410988 122.87957768 -156.19356414 124.01414652 -158.15039062 125.13574219 C-159.06498047 125.66586914 -159.97957031 126.19599609 -160.921875 126.7421875 C-161.74397461 127.21382324 -162.56607422 127.68545898 -163.41308594 128.17138672 C-163.99864258 128.5892041 -164.58419922 129.00702148 -165.1875 129.4375 C-165.1875 130.0975 -165.1875 130.7575 -165.1875 131.4375 C-156.18905441 133.39508592 -147.22719007 134.01503427 -138.0625 134.5 C-121.18425431 135.43122691 -121.18425431 135.43122691 -113.1875 136.4375 C-113.75 138.75 -113.75 138.75 -115.1875 141.4375 C-120.05365603 143.97979207 -123.68219318 144.81470628 -129.23828125 144.80078125 C-130.21637001 144.80261665 -130.21637001 144.80261665 -131.21421814 144.80448914 C-133.30992205 144.80269904 -135.40448918 144.77755202 -137.5 144.75 C-138.9482411 144.74135281 -140.39648332 144.73289015 -141.84472656 144.72460938 C-150.82554598 144.64150634 -159.64261205 144.07375675 -168.546875 142.90234375 C-183.2467288 141.02543109 -191.45571421 145.60682283 -203.75 153.125 C-205.48909794 154.18048768 -207.22869082 155.23516026 -208.96875 156.2890625 C-209.835 156.8140332 -210.70125 157.33900391 -211.59375 157.87988281 C-214.1027464 159.38660317 -216.62492938 160.86708412 -219.15625 162.3359375 C-219.93154053 162.78622314 -220.70683105 163.23650879 -221.50561523 163.70043945 C-222.96656436 164.5463692 -224.42952331 165.38884049 -225.89477539 166.22729492 C-229.01623417 168.03902386 -231.81839054 169.69564109 -234.1875 172.4375 C-234.2859355 174.48171269 -234.2859355 174.48171269 -233.1875 176.4375 C-226.69120752 182.52692656 -218.26092421 186.94728509 -210.64672852 191.49243164 C-196.72461919 199.82614242 -196.72461919 199.82614242 -195.1875 204.4375 C-210.06235151 205.86777418 -223.71048784 194.6717711 -235.1875 186.4375 C-236.74819944 185.1144591 -238.30684932 183.78899608 -239.86328125 182.4609375 C-242.9035793 180.08335386 -243.81077652 179.46496515 -247.77734375 179.17578125 C-252.02323922 180.74671394 -255.17260186 182.89147874 -258.75 185.625 C-265.51315637 190.59333912 -272.40944718 195.26054367 -279.5 199.75 C-280.43690674 200.34353271 -281.37381348 200.93706543 -282.33911133 201.54858398 C-288.19862237 205.23729113 -294.10054298 208.81648942 -300.140625 212.203125 C-302.30948549 213.39924562 -302.30948549 213.39924562 -304.1875 215.4375 C-304.1875 216.4275 -304.1875 217.4175 -304.1875 218.4375 C-301.35578663 219.94057197 -298.52198558 221.43966279 -295.6875 222.9375 C-294.83486572 223.38875244 -293.98223145 223.84000488 -293.10375977 224.30493164 C-288.90571434 226.51711499 -284.69887272 228.69731207 -280.43359375 230.77734375 C-279.34111328 231.31101562 -279.34111328 231.31101562 -278.2265625 231.85546875 C-276.85109078 232.5227515 -275.4722755 233.18319621 -274.08984375 233.8359375 C-270.79724195 235.43422129 -269.26651905 236.31897142 -267.1875 239.4375 C-266.80250109 241.09299531 -266.45956865 242.7597433 -266.1875 244.4375 C-270.63170881 242.97815953 -275.06858579 241.49770111 -279.5 240 C-280.15799591 239.77773743 -280.81599182 239.55547485 -281.493927 239.32647705 C-290.75465314 236.17777077 -299.69866502 232.68784299 -308.37426758 228.13110352 C-312.48218923 226.01597721 -315.43910753 224.81543985 -320.1875 225.4375 C-326.63075968 229.19606815 -329.64475752 235.58783214 -332.1875 242.4375 C-332.63049292 245.14407869 -332.9744374 247.71743354 -333.1875 250.4375 C-333.28933594 251.65566406 -333.39117188 252.87382813 -333.49609375 254.12890625 C-333.88962518 265.94677444 -331.26412051 276.23080638 -328.00439453 287.53320312 C-326.70271667 292.16104526 -325.57293386 296.82910949 -324.4375 301.5 C-323.43033846 305.64046199 -322.43294661 309.71893389 -321.0546875 313.75390625 C-319.98458632 317.06543558 -320.0492242 319.98060511 -320.1875 323.4375 C-321.98999023 323.26806641 -321.98999023 323.26806641 -324.1875 322.4375 C-332.55309262 311.05988302 -335.79999818 295.19891693 -340.01226807 281.98028564 C-341.04356756 278.75242814 -342.08781867 275.52876595 -343.13085938 272.3046875 C-345.1614504 266.01934724 -347.17946622 259.73008082 -349.1875 253.4375 C-352.76571549 253.4375 -353.06540735 253.92371578 -355.5234375 256.33984375 C-356.16901611 256.97414307 -356.81459473 257.60844238 -357.47973633 258.26196289 C-358.16704834 258.95926514 -358.85436035 259.65656738 -359.5625 260.375 C-360.27494873 261.09357178 -360.98739746 261.81214355 -361.72143555 262.55249023 C-368.34063884 269.36366149 -374.08360224 276.66873292 -379.65283203 284.34716797 C-381.20273002 286.45824442 -382.79505804 288.53002906 -384.40234375 290.59765625 C-385.41438002 291.9190277 -386.4261123 293.24063206 -387.4375 294.5625 C-387.90389893 295.15361572 -388.37029785 295.74473145 -388.85083008 296.35375977 C-391.86059168 300.35936904 -393.25358399 303.40410284 -393.1875 308.4375 C-392.38573761 310.48596777 -391.39804943 312.33103085 -390.32324219 314.25 C-388.23938177 318.26362626 -387.11277054 322.6204052 -385.8125 326.9375 C-382.92917776 336.24879337 -379.71237283 345.35346498 -376.1875 354.4375 C-367.1875 377.72347786 -367.1875 377.72347786 -367.1875 384.4375 C-375.70955325 381.28118398 -379.70352705 370.61593632 -383.875 363.1875 C-384.58768268 361.93003605 -385.30090265 360.67287646 -386.01464844 359.41601562 C-389.15448892 353.87698198 -392.26315705 348.32173014 -395.31640625 342.734375 C-395.76733643 341.91098633 -396.2182666 341.08759766 -396.68286133 340.23925781 C-397.493087 338.75281929 -398.29679712 337.26280213 -399.0925293 335.76855469 C-401.0744388 332.11943835 -403.06549892 329.19386131 -406.1875 326.4375 C-420.73896936 353.3969035 -426.55504025 378.10988798 -430.1875 408.4375 C-430.28933594 409.21738281 -430.39117188 409.99726562 -430.49609375 410.80078125 C-431.04563065 419.11044534 -426.40943109 425.85183924 -421.4375 432.1875 C-414.7216215 439.45726539 -406.07179258 443.66740125 -397.19140625 447.6640625 C-393.94429707 449.58108144 -392.7882642 451.07532143 -391.1875 454.4375 C-401.29360325 451.31599029 -410.50853544 446.9455533 -419.89697266 442.09643555 C-420.81269043 441.6250415 -421.7284082 441.15364746 -422.671875 440.66796875 C-423.49397461 440.23895264 -424.31607422 439.80993652 -425.16308594 439.36791992 C-427.11904473 438.29829823 -427.11904473 438.29829823 -429.1875 438.4375 C-428.42134916 454.32504906 -427.60502638 469.61215286 -418.4375 483.1875 C-415.45462385 487.62047373 -414.36577095 490.15495612 -415.1875 495.4375 C-420.54495743 491.48318618 -423.72814055 487.08692934 -427.1875 481.4375 C-427.97350586 480.16773315 -427.97350586 480.16773315 -428.77539062 478.87231445 C-437.11938242 465.19123326 -443.34921551 451.01583851 -443.9140625 434.765625 C-443.96623025 432.24557168 -443.96623025 432.24557168 -446.1875 430.4375 C-453.20788618 430.76242671 -459.95078596 433.33776017 -466.625 435.375 C-492.0702101 443.08441596 -492.0702101 443.08441596 -498.6875 440.4375 C-499.1825 440.1075 -499.6775 439.7775 -500.1875 439.4375 C-497.61796339 436.21891089 -495.21689497 435.80298706 -491.25 435.0625 C-479.36236228 432.49255615 -470.00426831 427.51968715 -460.1875 420.4375 C-459.63400879 420.03885742 -459.08051758 419.64021484 -458.51025391 419.22949219 C-451.98641486 415.08858485 -451.98641486 415.08858485 -447.1875 409.4375 C-447.05067663 407.27265024 -446.95469503 405.10520474 -446.875 402.9375 C-445.53953729 377.23285066 -439.57074557 354.02860905 -429.20117188 330.65283203 C-428.42676758 328.90655518 -428.42676758 328.90655518 -427.63671875 327.125 C-427.16580811 326.07699219 -426.69489746 325.02898437 -426.2097168 323.94921875 C-425.06184782 321.58071684 -425.06184782 321.58071684 -425.1875 319.4375 C-433.95519114 320.1227908 -442.69351613 321.00099535 -451.4375 321.9375 C-465.70898363 323.43487441 -479.82075548 324.68238769 -494.1875 324.4375 C-494.1875 322.7875 -494.1875 321.1375 -494.1875 319.4375 C-490.99078571 317.58920079 -488.35502285 317.07746887 -484.69140625 316.76171875 C-483.58949951 316.65867432 -482.48759277 316.55562988 -481.35229492 316.44946289 C-480.1635376 316.34239014 -478.97478027 316.23531738 -477.75 316.125 C-442.77285136 314.64626988 -442.77285136 314.64626988 -413.1875 300.4375 C-411.028639 297.63516007 -408.97658564 294.76526637 -406.9375 291.875 C-405.77423818 290.24552186 -404.61017516 288.61661539 -403.4453125 286.98828125 C-402.88360352 286.20146973 -402.32189453 285.4146582 -401.74316406 284.60400391 C-398.30791125 279.81988063 -394.73970511 275.13493103 -391.1875 270.4375 C-388.49664344 266.87752032 -385.81002692 263.31437794 -383.125 259.75 C-382.44453613 258.85104004 -381.76407227 257.95208008 -381.06298828 257.02587891 C-380.43247559 256.18847168 -379.80196289 255.35106445 -379.15234375 254.48828125 C-378.5812085 253.73200439 -378.01007324 252.97572754 -377.42163086 252.1965332 C-376.09177684 250.65919456 -376.09177684 250.65919456 -376.1875 249.4375 C-386.87841322 248.69157976 -397.55547752 248.20495423 -408.26879883 247.93481445 C-410.62007498 247.87512503 -412.97115352 247.80994534 -415.32226562 247.74414062 C-425.61276069 247.46725731 -435.89357437 247.38586234 -446.1875 247.4375 C-444.3125 240.5625 -444.3125 240.5625 -443.1875 239.4375 C-441.2145351 239.42307634 -439.24108427 239.4747733 -437.26953125 239.55078125 C-419.5719543 240.02409622 -402.38306573 239.04063295 -384.8125 236.8125 C-383.82367828 236.69452057 -382.83485657 236.57654114 -381.81607056 236.45498657 C-366.8571256 234.64177641 -355.23548422 232.40881034 -344.6328125 220.88671875 C-341.17244122 217.42081972 -337.30825044 214.58596025 -333.35180664 211.71191406 C-331.93097571 210.66340229 -330.55454953 209.55522674 -329.1875 208.4375 C-329.1875 207.7775 -329.1875 207.1175 -329.1875 206.4375 C-341.88278451 200.42749829 -354.19094782 196.27488523 -368.1875 194.4375 C-365.25606646 191.50606646 -362.70985833 192.11893008 -358.6940918 192.05834961 C-357.6812915 192.05971924 -356.66849121 192.06108887 -355.625 192.0625 C-354.59608643 192.06193604 -353.56717285 192.06137207 -352.50708008 192.06079102 C-343.10783837 192.19420149 -332.74024284 193.16112858 -324.1875 197.4375 C-316.49188748 198.58686663 -311.56955515 197.18679925 -305.25927734 192.76318359 C-304.36934082 192.09883301 -303.4794043 191.43448242 -302.5625 190.75 C-301.61971191 190.07533691 -300.67692383 189.40067383 -299.70556641 188.70556641 C-296.84448871 186.64414182 -294.01404328 184.54594581 -291.1875 182.4375 C-290.33027344 181.80859863 -289.47304687 181.17969727 -288.58984375 180.53173828 C-286.23727418 178.80506034 -283.89614064 177.06465762 -281.5625 175.3125 C-280.87075684 174.79341064 -280.17901367 174.27432129 -279.46630859 173.73950195 C-278.82516113 173.24538818 -278.18401367 172.75127441 -277.5234375 172.2421875 C-276.97220215 171.81921387 -276.4209668 171.39624023 -275.85302734 170.96044922 C-271.25336269 166.75454067 -269.68131781 163.67081584 -269.09765625 157.44140625 C-269.02639023 156.77141098 -268.95512421 156.10141571 -268.88169861 155.41111755 C-268.58032625 152.57333687 -268.31806971 149.73232162 -268.05395508 146.89086914 C-266.14788173 126.99666393 -266.14788173 126.99666393 -261.1875 118.4375 C-258.01586914 116.55297852 -258.01586914 116.55297852 -255.1875 115.4375 C-256.2356299 119.79127036 -257.37436274 124.05072183 -258.75 128.3125 C-261.8000221 138.47924034 -261.30483784 148.92924485 -261.1875 159.4375 C-254.44795448 158.0583297 -249.60461517 154.69013512 -244 150.8125 C-242.13167591 149.53881971 -240.26318725 148.26538079 -238.39453125 146.9921875 C-237.49943848 146.37827148 -236.6043457 145.76435547 -235.68212891 145.13183594 C-233.58065998 143.70453173 -231.46584113 142.31116974 -229.32421875 140.9453125 C-228.28910156 140.28273438 -227.25398438 139.62015625 -226.1875 138.9375 C-225.32125 138.3909375 -224.455 137.844375 -223.5625 137.28125 C-216.95238033 132.14970973 -215.37349437 127.65590415 -213.875 119.6875 C-211.79725124 109.89790898 -208.5041564 101.29334951 -204.09814453 92.33496094 C-203.27840739 90.62691884 -202.53815303 88.88127469 -201.80859375 87.1328125 C-200.75429517 84.67626202 -199.8321283 82.54282238 -198.1875 80.4375 C-194.375 79.3125 -194.375 79.3125 -191.1875 79.4375 C-191.45304687 80.01757812 -191.71859375 80.59765625 -191.9921875 81.1953125 C-192.34539062 81.97648438 -192.69859375 82.75765625 -193.0625 83.5625 C-193.41054687 84.32820312 -193.75859375 85.09390625 -194.1171875 85.8828125 C-196.80034074 92.28712718 -197.73057021 98.12655056 -198.3125 105 C-198.44205078 106.39895508 -198.44205078 106.39895508 -198.57421875 107.82617188 C-198.95344742 112.04885305 -199.23184491 116.19501329 -199.1875 120.4375 C-193.3130907 117.42051942 -188.03561626 113.94805033 -182.7421875 110.01171875 C-177.05397385 105.8388781 -171.16956541 101.93912116 -165.33129883 97.98095703 C-159.24570139 93.85235419 -153.19999733 89.67189386 -147.1875 85.4375 C-148.14120994 75.96542624 -149.72196768 63.43061635 -157.10253906 56.68798828 C-160.63804862 54.2329958 -164.33391559 52.35877816 -168.2265625 50.54296875 C-172.395593 48.5761673 -174.40657132 46.06097771 -177.1875 42.4375 C-177.8475 42.4375 -178.5075 42.4375 -179.1875 42.4375 Z " fill="#FAFAFA" transform="translate(1725.1875,437.5625)"/>
<path d="M0 0 C1.10545166 -0.00555908 2.21090332 -0.01111816 3.34985352 -0.0168457 C22.19932684 0.14953592 39.4975973 7.12748245 53.3671875 19.953125 C70.35290385 37.70290472 79.22121886 59.70595266 84.625 83.3125 C84.78339355 83.98748535 84.94178711 84.6624707 85.10498047 85.35791016 C87.61043477 96.08902173 88.77803043 106.32118401 88.86328125 117.328125 C88.87298447 118.36972778 88.88268768 119.41133057 88.89268494 120.48449707 C88.91754965 123.8438708 88.93020333 127.20304351 88.9375 130.5625 C88.94142761 132.27741638 88.94142761 132.27741638 88.94543457 134.02697754 C88.94979428 151.77162538 88.26460997 168.88842696 84.625 186.3125 C84.46483398 187.08722656 84.30466797 187.86195313 84.13964844 188.66015625 C83.20579223 192.96660144 82.00474524 197.12984573 80.625 201.3125 C80.41649414 201.97040527 80.20798828 202.62831055 79.99316406 203.30615234 C73.41740601 223.94487046 63.67638631 241.69065299 48.625 257.3125 C47.96757813 258.0446875 47.31015625 258.776875 46.6328125 259.53125 C34.39166081 272.77060719 16.09239986 281.00292819 -1.73022461 282.61621094 C-5.09707941 282.74759557 -8.44328525 282.78068194 -11.8125 282.75 C-12.99537598 282.74170166 -14.17825195 282.73340332 -15.39697266 282.72485352 C-34.14491517 282.36198178 -49.72174942 275.28094805 -63.375 262.3125 C-73.80957943 251.27952175 -80.36127895 237.48771804 -85.375 223.3125 C-85.63023437 222.59465332 -85.88546875 221.87680664 -86.1484375 221.13720703 C-102.03832844 175.6602605 -103.00972181 118.43211094 -88.375 72.3125 C-88.15618164 71.61995117 -87.93736328 70.92740234 -87.71191406 70.21386719 C-82.69726926 54.82058162 -75.43828184 40.2352434 -64.375 28.3125 C-63.54355469 27.38953125 -62.71210937 26.4665625 -61.85546875 25.515625 C-44.92643894 7.57035768 -24.41048206 0.10432561 0 0 Z " fill="#000000" transform="translate(801.375,615.6875)"/>
<path d="M0 0 C48.18 0 96.36 0 146 0 C146 6.6 146 13.2 146 20 C129.83 20 113.66 20 97 20 C99.09021484 24.90746094 99.09021484 24.90746094 101.22265625 29.9140625 C101.70625107 31.04947479 102.18984589 32.18488708 102.68809509 33.35470581 C104.92998006 38.61832495 107.17191608 43.88192232 109.41403675 49.14544106 C110.75782464 52.30007322 112.10157736 55.45472037 113.4453125 58.609375 C113.71803167 59.24962994 113.99075085 59.88988487 114.27173424 60.54954147 C118.11785024 69.57913792 121.96196185 78.60958508 125.8046875 87.640625 C135.48867316 110.39699705 145.19279252 133.14455635 154.9375 155.875 C155.4285321 157.02040253 155.91956421 158.16580505 156.42547607 159.34591675 C161.31720163 170.75555672 166.21154525 182.16407216 171.1086607 193.57139969 C173.30209417 198.68089699 175.49469786 203.79074994 177.68681049 208.90081406 C179.48057768 213.08206021 181.27613587 217.26253449 183.07202148 221.44287109 C184.01814045 223.64808021 184.96418894 225.85331957 185.91015625 228.05859375 C186.32274689 229.0178627 186.73533752 229.97713165 187.16043091 230.96546936 C190.86394095 239.60654599 194.43425212 248.30142594 198 257 C198.66483147 255.32685982 198.66483147 255.32685982 199.34309387 253.61991882 C220.55267938 200.24682251 241.80586452 146.8919492 263.22680283 93.60330582 C264.61611652 90.1470995 266.00516684 86.69078741 267.39419556 83.23446655 C269.59373056 77.76186014 271.79423512 72.28964456 273.99558067 66.81776619 C274.79527339 64.82990364 275.59480376 62.84197577 276.39414406 60.85397148 C276.76655409 59.92790659 277.13896412 59.0018417 277.5226593 58.04771423 C277.84307347 57.25080138 278.16348764 56.45388853 278.49361134 55.63282681 C283.28733605 43.73713389 288.14363712 31.87110926 293 20 C275.18 20 257.36 20 239 20 C239 13.4 239 6.8 239 0 C276.29 0 313.58 0 352 0 C352 11.68421053 352 11.68421053 348 16 C341.02749834 20.21255308 334.72982054 20.19322165 326.7265625 20.42578125 C321.21457661 21.27511241 317.35413258 23.96271845 314 28.375 C311.62885142 31.79844557 309.92447818 35.23088448 308.30859375 39.06640625 C308.05420029 39.66895737 307.79980682 40.27150848 307.53770447 40.89231873 C303.95883079 49.41306071 300.51765116 57.99109741 297.0625 66.5625 C296.31006324 68.42584886 295.55745598 70.28912888 294.8046875 72.15234375 C293.27180959 75.94658028 291.7394956 79.74104379 290.20751953 83.53564453 C287.28162202 90.78070137 284.34529093 98.02151797 281.40792847 105.26193237 C275.76503174 119.17182168 270.13092103 133.08525912 264.5 147 C259.12892192 160.27242492 253.75497385 173.5436783 248.375 186.8125 C248.06850525 187.56842438 247.7620105 188.32434875 247.44622803 189.10317993 C244.99211589 195.15574646 242.53769204 201.20818657 240.08325195 207.26062012 C237.9303526 212.56951979 235.77758213 217.8784717 233.625 223.1875 C233.31866638 223.94302155 233.01233276 224.69854309 232.69671631 225.47695923 C228.34701059 236.20531188 224.00117167 246.93522459 219.65869141 257.66650391 C218.22176265 261.21732355 216.78387826 264.76775394 215.34521484 268.31787109 C212.22430982 276.02085511 209.1066405 283.72496178 206.01704407 291.44056702 C187.00853685 338.90876874 167.30861704 387.06915406 132 425 C131.32582031 425.73992187 130.65164063 426.47984375 129.95703125 427.2421875 C120.80435866 436.8928479 110.22258951 444.27904886 98.25 450 C97.49477051 450.36158203 96.73954102 450.72316406 95.96142578 451.09570312 C83.69268788 456.68759491 72.30343926 457.64258613 59 457.625 C58.13071869 457.62612793 57.26143738 457.62725586 56.36581421 457.62841797 C43.17669905 457.59188766 31.63998562 456.75144861 20 450 C18.845 449.36320312 17.69 448.72640625 16.5 448.0703125 C6.5234625 441.98169035 -0.30815808 434.66765424 -4.15234375 423.5390625 C-6.21274515 414.93664927 -6.49372748 405.79360041 -2.18359375 397.859375 C1.37912167 392.26250194 4.51424256 388.93411581 10.78515625 386.69921875 C18.7304374 384.97114423 29.46445452 383.8149426 36.75 388.0625 C38.48046875 389.4765625 38.48046875 389.4765625 40 391 C40.51175781 391.46148438 41.02351563 391.92296875 41.55078125 392.3984375 C48.27227595 399.24150963 51.98628156 409.08433947 55.21728516 417.98217773 C57.38917935 423.87868642 59.47056316 429.10465602 64.6796875 432.95703125 C72.80625135 436.60988066 82.95982357 433.74287269 91 431 C100.84787623 427.23010988 107.71697519 421.3766637 115 414 C116.04414063 412.95392578 116.04414063 412.95392578 117.109375 411.88671875 C137.00469332 390.71711352 149.49168987 362.88865071 162 337 C162.46438477 336.04464355 162.92876953 335.08928711 163.40722656 334.10498047 C164.60502351 331.62084586 165.77775361 329.12708215 166.9375 326.625 C167.27370361 325.92463623 167.60990723 325.22427246 167.95629883 324.50268555 C169.93103341 320.11396208 170.10817063 317.62826238 169 313 C167.93898044 310.32887705 166.83591128 307.74529012 165.6328125 305.140625 C165.28664886 304.37611023 164.94048523 303.61159546 164.58383179 302.82391357 C163.43747453 300.29622415 162.281209 297.77319634 161.125 295.25 C160.31114842 293.45995375 159.49801039 291.66958294 158.68554688 289.87890625 C156.98430959 286.13185208 155.27930039 282.38654923 153.57128906 278.64257812 C149.92190775 270.63998906 146.3018523 262.62415882 142.67962646 254.60925293 C141.49052394 251.97903961 140.30036571 249.34930652 139.10986328 246.71972656 C133.34937842 233.99514798 127.61274208 221.25996683 121.88525391 208.52050781 C116.10827987 195.67211304 110.3103027 182.83335508 104.5 170 C98.31593994 156.34111806 92.14826224 142.67503295 86 129 C80.26427499 116.2433811 74.51611517 103.4924892 68.74993896 90.74960327 C67.57121326 88.14425896 66.39321171 85.53858822 65.21533203 82.93286133 C61.47980819 74.67179286 57.73606542 66.41463726 53.97111511 58.16693115 C52.19672751 54.27858027 50.42618034 50.38848648 48.65597534 46.49822998 C47.80856258 44.6388277 46.95924694 42.78029136 46.10794067 40.92266846 C44.92920542 38.35031383 43.75691216 35.77511333 42.5859375 33.19921875 C42.23586136 32.43976456 41.88578522 31.68031036 41.52510071 30.89784241 C41.04547127 29.83792336 41.04547127 29.83792336 40.55615234 28.7565918 C40.27814789 28.14824997 40.00014343 27.53990814 39.7137146 26.91313171 C39 25 39 25 38 20 C25.46 20 12.92 20 0 20 C0 13.4 0 6.8 0 0 Z " fill="#FCFCFC" transform="translate(255,604)"/>
<path d="M0 0 C1.18441681 0.03822624 1.18441681 0.03822624 2.39276123 0.07722473 C4.90361169 0.16363171 7.41220051 0.279296 9.921875 0.39453125 C11.62493802 0.45426797 13.32806427 0.51223018 15.03125 0.56835938 C16.64589214 0.6273172 18.26047912 0.68780993 19.875 0.75 C20.6416095 0.77926071 21.40821899 0.80852142 22.19805908 0.83866882 C27.55325269 1.08840894 27.55325269 1.08840894 28.671875 2.20703125 C28.74367464 3.72631163 28.75579507 5.24870607 28.734375 6.76953125 C28.72535156 7.59582031 28.71632813 8.42210937 28.70703125 9.2734375 C28.69542969 9.91152344 28.68382812 10.54960938 28.671875 11.20703125 C29.28595215 11.18608398 29.9000293 11.16513672 30.53271484 11.14355469 C33.37059517 11.05935091 36.20821152 11.00804702 39.046875 10.95703125 C40.01238281 10.92351563 40.97789063 10.89 41.97265625 10.85546875 C50.16165407 10.74554932 56.5335354 12.63206439 63.484375 16.95703125 C67.10188513 20.67789881 70.671875 24.87685403 70.671875 30.20703125 C67.90911323 29.68434659 65.3457874 29.09833538 62.671875 28.20703125 C55.50807326 27.27146013 50.61162666 28.85652161 44.21875 32.0078125 C40.77953268 33.62719857 38.48368654 34.36261539 34.671875 34.20703125 C32.10278537 31.78474674 30.63666504 29.14952164 28.796875 26.14453125 C25.51404123 21.60649633 21.38146501 18.89062517 15.91796875 17.515625 C9.2282229 16.59651209 2.16623077 16.75445264 -4.515625 17.70703125 C-9.46880507 18.35662864 -14.34067629 18.28954419 -19.328125 18.20703125 C-18.63941366 14.97308236 -17.51196495 12.18361039 -16.078125 9.20703125 C-15.68109375 8.36140625 -15.2840625 7.51578125 -14.875 6.64453125 C-10.99499068 0.53057717 -6.90581994 -0.3585492 0 0 Z " fill="#070707" transform="translate(1635.328125,526.79296875)"/>
<path d="M0 0 C6.12840983 5.67445355 8.56610558 13.8984535 9.2578125 22.03125 C9.5577427 30.26933271 9.5577427 30.26933271 7.2109375 33.34375 C4.1220979 35.65765104 1.7543878 35.28879906 -2 35 C-1.34 37.31 -0.68 39.62 0 42 C-4.4137931 45.0651341 -4.4137931 45.0651341 -7.25 44.75 C-9 44 -9 44 -10 43 C-11.15290758 30.83901411 -11.45042418 18.68678384 -5 8 C-4.52304688 7.17886719 -4.04609375 6.35773438 -3.5546875 5.51171875 C-2.42373055 3.64079283 -1.22071692 1.81363657 0 0 Z " fill="#060606" transform="translate(1598,465)"/>
<path d="M0 0 C2.50696229 0.95091673 3.94401245 1.93801378 5.75 3.9375 C7.66158482 8.6208828 7.63784079 13.0145777 7 18 C4.7532857 23.14872026 1.71142925 25.05846869 -3.1953125 27.3359375 C-5 28 -5 28 -7 28 C-7.37261599 18.29818367 -7.60525718 10.04736005 -1.8125 1.9375 C-1.214375 1.298125 -0.61625 0.65875 0 0 Z " fill="#0C0C0C" transform="translate(1634,460)"/>
<path d="M0 0 C1.0209375 0.804375 1.0209375 0.804375 2.0625 1.625 C2.0625 2.615 2.0625 3.605 2.0625 4.625 C-4.5375 4.625 -11.1375 4.625 -17.9375 4.625 C-12.22348834 -2.51751457 -8.68237835 -4.06409199 0 0 Z " fill="#0D0D0D" transform="translate(1674.9375,509.375)"/>
<path d="M0 0 C-0.96355353 10.55808656 -0.96355353 10.55808656 -2 15 C-5 13 -5 13 -5.65234375 10.9765625 C-6.42540707 4.60143758 -6.42540707 4.60143758 -4.1875 1.4375 C-2 0 -2 0 0 0 Z " fill="#0E0E0E" transform="translate(1593,454)"/>
<path d="M0 0 C3.75068199 0.45008184 4.78988517 1.50101252 7.125 4.375 C5.50036158 4.42895478 3.87521459 4.46777195 2.25 4.5 C1.34507813 4.52320313 0.44015625 4.54640625 -0.4921875 4.5703125 C-2.875 4.375 -2.875 4.375 -4.875 2.375 C-2.875 0.375 -2.875 0.375 0 0 Z " fill="#1E1E1E" transform="translate(1686.875,513.625)"/>
</svg>
