<svg xmlns="http://www.w3.org/2000/svg" version="1.1" xmlns:xlink="http://www.w3.org/1999/xlink" xmlns:svgjs="http://svgjs.dev/svgjs" width="2000" height="1500" viewBox="0 0 2000 1500"><rect width="2000" height="1500" fill="#000000"></rect><g transform="matrix(0.4444444444444444,0,0,0.4444444444444444,555.5555555555557,250)"><svg viewBox="0 0 320 360" data-background-color="#f9f9f9" preserveAspectRatio="xMidYMid meet" height="2250" width="2000" xmlns="http://www.w3.org/2000/svg" xmlns:xlink="http://www.w3.org/1999/xlink"><g id="tight-bounds" transform="matrix(1,0,0,1,0,0)"><svg viewBox="0 0 320 360" height="360" width="320"><g><svg></svg></g><g><svg viewBox="0 0 320 360" height="360" width="320"><g><path d="M20.961 227.22l3.726 4.658-1.863-6.056c-0.466-2.795-3.726 0.466-1.863 1.398M25.153 224.425c1.397 2.329 2.795 4.658 2.795 6.987 0 3.261 2.795 4.658 5.123 5.589-3.261-3.726-5.124-13.974-7.918-12.576M204.017 26.929c7.918 0 15.371-0.932 23.756 0.931 20.495 5.124 37.729 15.371 49.374 29.811l32.606 52.169c1.397 13.042 4.192 27.482 3.726 43.319 3.261 0 2.795-4.658 6.521-5.59-3.726 9.316-5.59 20.961-6.521 34.469-2.329-7.453 0-18.632 0.466-24.687-3.261 5.124-5.124 1.397-5.124-0.932 0.466-3.726-1.397-3.261-2.795-4.658-5.124-4.658-8.384-9.782-12.11-17.7 2.329-6.055 2.795-14.905-4.658-19.563-2.329-1.397-5.124-3.726-6.521-7.453-1.863-5.124-5.124-11.179-4.193-19.097 0.466-2.329-6.987 5.124-11.179 1.863-18.166-12.576-36.332-27.016-58.224-39.127-11.645 0-20.029-4.192-24.221-9.316-3.726-4.658-0.932-10.713 4.658-11.179 3.261 0 6.987-0.932 9.782 0.932 0.466-1.863 2.329-4.192 4.657-4.192M157.904 16.215l0.932 0.466c4.658 0.932 6.987 7.453 12.11 5.124 0 3.261 0.466 6.521-0.466 8.85-1.397 3.726-5.59 3.726-8.85 3.726-31.208-1.863-49.374 11.179-68.471 22.358-5.124 3.261-10.713 5.59-14.906 9.782-20.029 18.632-41.921 35.866-47.045 70.335l-4.192 38.195c-0.466 4.192-5.124 8.384-4.192 13.508l3.26 22.824c-3.261-3.261-5.124 0.932-4.192 2.795 0.466 1.397 2.329 6.055 5.124 1.863 3.726 6.987 7.453 20.495 12.576 26.55 15.837 18.632 36.332 35.4 53.101 52.169 4.192-0.932 7.453-0.932 8.384-3.727 1.397 2.795-1.397 5.59-3.726 6.056 7.453 4.658 15.837 8.85 27.016 9.781 14.44 0.932 27.948 3.261 40.524 6.522 6.521-1.863 13.042-2.795 20.029-3.261 2.329 0 3.726-3.726 6.521-4.658l0.466-4.658c2.795 4.192 2.329-1.397 0.466-4.192 3.261 2.795 4.192 5.124 5.589 6.987 0-1.397 3.726-6.521 3.727-0.466l0.931-6.055c1.397-0.932 1.863 5.124 3.261 0.931 1.397-4.192 4.192-0.932 6.987-2.329-0.932 1.863-0.466 5.59 2.794 3.261l3.727-3.261c2.329 5.59 6.055 3.261 7.918 2.329 20.495-13.042 40.99-28.413 60.553-43.784l-0.466 6.055 2.329-7.453c2.329 2.329 4.192 0.466 5.124-0.931 2.795-4.658 6.521-9.316 12.577-13.508-7.453 20.029-16.303 35.866-27.482 48.908l-4.658 5.59c0 3.261-0.932 7.453-4.658 7.918-1.863 0.466-5.59-0.932-8.384 1.863-1.397 1.863 3.261 5.59-0.466 2.795-3.261-2.329-6.521 0-10.248 0.932-2.795 0.932 1.863 3.726 2.795 5.589 0.932 1.863 1.863 3.726 1.398 6.056l-5.124-5.59c-6.055 3.261-9.782 9.316-14.906 13.974-2.329 1.863-1.397 5.124-1.397 7.918-3.261 0-6.987-0.932-8.85 0.932-1.397 1.863-0.932 4.658-0.932 7.453-4.658-0.466-5.124-7.453-9.315-6.056-4.192 0.932-8.85 1.397-12.577 3.727 2.795 5.59-4.658 2.329-3.726 3.26-6.987-4.192-13.042-7.453-20.495-4.658-15.837-5.124-35.4-2.795-49.84-0.931 0-2.329 0.466-4.658-0.466-5.124-0.932 2.329-3.726 1.397-3.26 1.397-8.85-6.055-17.7-9.782-27.016-14.905-8.384 0.932-16.303-3.261-18.632-5.59-6.521-6.055-13.974-2.795-20.029-4.192-13.042-3.261-17.7-16.769-19.098-26.084-0.932-4.658-4.658-6.521-6.055-6.056-6.055-19.563-15.371-37.263-22.824-55.429-1.863-4.658-1.397-9.316-1.397-14.44 2.329 0.932 4.658 0.466 4.192-2.794-2.329-15.371-7.918-27.016-13.974-38.195 3.261-15.837 3.726-34.469 11.179-48.443 6.521-12.576 18.632-19.098 27.016-29.811 2.795-3.726 2.795-8.85 5.59-12.11 9.316-9.316 18.632-19.098 28.879-27.482 4.658-3.726 10.247 0 17.234-1.397 2.329-8.384 11.645-15.837 20.495-13.508 3.726 0.932 11.179-8.85 13.508-9.782 3.726-1.397 1.863 3.726 1.863 6.987 8.85-6.987 20.961-10.713 32.14-14.906" fill="#ffffff" fill-rule="nonzero" stroke="none" stroke-width="1" stroke-linecap="butt" stroke-linejoin="miter" stroke-miterlimit="10" stroke-dasharray="" stroke-dashoffset="0" font-family="none" font-weight="none" font-size="none" text-anchor="none" style="mix-blend-mode: normal" data-fill-palette-color="tertiary"></path></g><g transform="matrix(1,0,0,1,64,90.2680412371134)"><svg viewBox="0 0 192 179.4639175257732" height="179.4639175257732" width="192"><g><svg viewBox="0 0 192 179.4639175257732" height="179.4639175257732" width="192"><g><svg viewBox="0 0 192 179.4639175257732" height="179.4639175257732" width="192"><g><svg viewBox="0 0 192 179.4639175257732" height="179.4639175257732" width="192"><g id="textblocktransform"><svg viewBox="0 0 192 179.4639175257732" height="179.4639175257732" width="192" id="textblock"><g><svg viewBox="0 0 192 179.4639175257732" height="179.4639175257732" width="192"><g transform="matrix(1,0,0,1,0,0)"><svg width="192" viewBox="-3.25 -38.45 59.2 55.400000000000006" height="179.4639175257732" data-palette-color="#030303"><path d="M22.8-30.45L12-30.45Q10.05-30.45 8.83-29.73 7.6-29 6.9-27.63 6.2-26.25 5.7-24.1L5.7-24.1Q4.5-24.1 3.33-24.23 2.15-24.35 1.25-24.8L1.25-24.8Q1.75-26.85 2.08-29.4 2.4-31.95 2.4-33.95L2.4-33.95Q4.3-33.9 6.35-33.85 8.4-33.8 11.03-33.8 13.65-33.8 17.3-33.8L17.3-33.8Q20.65-33.8 23.25-33.83 25.85-33.85 28-33.88 30.15-33.9 32-33.95L32-33.95Q32-31.95 32.25-29.53 32.5-27.1 33-24.85L33-24.85Q32.1-24.45 30.95-24.28 29.8-24.1 28.45-24.1L28.45-24.1Q27.95-27.4 26.7-28.93 25.45-30.45 22.8-30.45L22.8-30.45ZM12.75-8.6L12.75-32.15 21.4-32.15 21.4-8.6Q21.4-6.45 21.75-5.35 22.1-4.25 23.1-3.83 24.1-3.4 26.05-3.3L26.05-3.3Q26.25-2.7 26.35-1.73 26.45-0.75 26.45 0.15L26.45 0.15Q25 0.05 22.68 0.03 20.35 0 17.55 0L17.55 0Q15.7 0 13.7 0.03 11.7 0.05 10.03 0.08 8.35 0.1 7.25 0.15L7.25 0.15Q7.25-0.7 7.43-1.7 7.6-2.7 7.8-3.3L7.8-3.3Q9.75-3.4 10.83-3.83 11.9-4.25 12.33-5.35 12.75-6.45 12.75-8.6L12.75-8.6ZM47.75-25.2L47.75-6.6Q47.75-3.15 47.27-0.33 46.8 2.5 45.5 4.78 44.2 7.05 41.75 8.95 39.3 10.85 35.3 12.45L35.3 12.45Q34.55 11.9 34.2 11.1 33.85 10.3 33.75 9.35L33.75 9.35Q35.6 8 36.77 6.53 37.95 5.05 38.52 2.85 39.1 0.65 39.1-2.75L39.1-2.75 39.1-25.2Q39.1-27.35 38.82-28.45 38.55-29.55 37.87-29.95 37.2-30.35 35.8-30.5L35.8-30.5Q35.6-31.15 35.5-32.13 35.4-33.1 35.4-33.95L35.4-33.95Q36.35-33.9 37.75-33.85 39.15-33.8 40.65-33.8 42.15-33.8 43.4-33.8L43.4-33.8Q45.35-33.8 47.65-33.83 49.95-33.85 51.45-33.95L51.45-33.95Q51.45-32.95 51.35-32.1 51.25-31.25 51.05-30.5L51.05-30.5Q49.6-30.4 48.87-29.9 48.15-29.4 47.95-28.3 47.75-27.2 47.75-25.2L47.75-25.2Z" opacity="1" transform="matrix(1,0,0,1,0,0)" fill="#ffffff" class="wordmark-text-0" data-fill-palette-color="primary" id="text-0"></path></svg></g></svg></g></svg></g></svg></g></svg></g></svg></g></svg></g></svg></g><defs></defs></svg><rect width="320" height="360" fill="none" stroke="none" visibility="hidden"></rect></g></svg></g></svg>